<svg  width="1em" height="1em" viewBox="0 0 48 53" fill="none" xmlns="http://www.w3.org/2000/svg">
<path d="M35.7946 40.1903V33.068H40.5438V40.1903H47.6692V44.9426H40.5438V52.0649H35.7946V44.9426H28.6692V40.1903H35.7946Z" fill="currentColor"/>
<path d="M32.7585 28.5139C33.6722 28.5139 34.4129 27.7733 34.4129 26.8596C34.4129 25.946 33.6722 25.2053 32.7585 25.2053C31.8449 25.2053 31.1042 25.946 31.1042 26.8596C31.1042 27.7733 31.8449 28.5139 32.7585 28.5139Z" fill="currentColor"/>
<path d="M35.3082 18.0148C35.6706 14.4459 35.3701 6.88374 28.093 0L25.5371 2.70145C29.7845 6.71955 31.2002 10.9545 31.5751 14.1145C31.2157 13.4918 30.8161 12.8598 30.37 12.2278C26.5656 6.83418 21.4756 4.40535 15.6514 5.20463L14.499 5.36263L14.1365 6.46861C14.0404 6.76292 11.878 13.7644 20.0877 21.2491C20.5741 21.6922 20.6051 22.4543 20.1621 23.0212L20.0908 23.1141C19.0158 24.5392 17.5938 25.6297 15.9829 26.2679C12.8663 27.5009 8.43618 29.7996 5.03458 33.7465C1.18687 38.2138 -0.464361 43.6879 0.111866 52.0618H3.85115C2.55928 37.5477 11.7139 31.9558 17.3491 29.7253C19.5952 28.8361 21.5717 27.3243 23.0556 25.354L23.0835 25.3168C24.744 23.204 24.5303 20.2733 22.5909 18.5043C18.0059 14.322 17.4513 10.5889 17.5164 8.77662C21.33 8.69607 24.6046 10.5394 27.2782 14.291C29.6605 17.6338 30.6519 21.2708 30.6612 21.308L30.7634 21.2801L33.0404 21.435C39.8715 21.8966 40.0481 28.4303 40.045 29.1707L41.9038 29.1862L43.7626 29.2079C43.8029 25.8032 42.0246 19.4957 35.3082 18.0086V18.0148Z" fill="currentColor"/>
</svg>
