<svg viewBox="0 0 96 96" fill="none" xmlns="http://www.w3.org/2000/svg">
<path d="M94.09 60.24C87.25 85.77 61.01 100.92 35.48 94.08C9.94998 87.24 -5.20002 61 1.63998 35.47C4.92998 23.21 12.95 12.76 23.94 6.41001C34.93 0.0700049 47.99 -1.64999 60.25 1.63001C85.78 8.47001 100.93 34.71 94.09 60.24Z" fill="url(#paint0_linear_7_113)"/>
<path d="M95.72 47.86C95.72 60.55 90.68 72.72 81.7 81.7C72.73 90.67 60.55 95.72 47.86 95.72C35.17 95.72 23 90.68 14.02 81.7C5.05001 72.72 0.0100098 60.55 0.0100098 47.86C0.0100098 35.17 8.88001 38.53 20.65 33.78C30.73 29.71 41.55 44.06 54.24 44.06C66.93 44.06 71.88 39.62 79.61 36.48C90.33 32.13 95.71 35.17 95.71 47.86H95.72Z" fill="url(#paint1_linear_7_113)"/>
<path d="M70.26 39.45C69.06 37.78 67.7 36.27 66.07 35C64.83 34.03 63.53 33.19 61.95 32.91C61.63 32.85 61.64 32.66 61.7 32.42C62.17 30.52 62.12 28.62 61.79 26.71C61.32 23.92 60.33 21.31 59.05 18.81C58.12 16.99 57.08 15.23 55.69 13.71C55.04 13 54.53 12.72 53.53 13.75C53.22 14.07 52.98 14.44 52.75 14.82C52.24 15.67 51.85 16.58 51.49 17.51C51.21 18.2167 51.3467 18.81 51.9 19.29C51.9 19.29 51.97 19.35 52.01 19.38C55.66 22.7 57.87 26.83 58.94 31.6C59 31.85 59.08 32.11 59.02 32.4C58.87 32.27 58.87 32.12 58.84 31.99C58.42 30.24 57.86 28.54 57.08 26.92C55.48 23.57 53.23 20.81 49.79 19.2C47.92 18.33 45.96 17.87 43.88 18.18C42.59 18.37 42.18 18.88 42.23 20.18C42.23 20.23 42.23 20.27 42.23 20.32C42.28 21.68 42.61 22.99 43.01 24.28C43.97 27.39 45.49 30.15 47.98 32.31C48.91 33.11 49.84 33.91 50.83 34.63C51.11 34.83 51.2 34.94 50.82 35.17C49.55 35.91 48.57 36.92 47.99 38.29C47.84 38.65 47.67 39.01 47.48 39.35C47.21 39.85 46.83 40.22 46.26 40.39C45.76 40.54 45.29 40.75 44.8 40.94C40.42 42.68 36.29 44.85 32.8 48.08C30.4 50.3 28.55 52.91 27.4 55.99C26.24 59.1 25.96 62.31 26.29 65.6C26.41 66.79 26.57 66.57 25.5 67.09C24.71 67.47 24.26 68.11 24.19 68.97C24.06 70.55 24.49 71.95 25.63 73.1C26.18 73.66 26.87 74.01 27.56 74.36C27.92 74.54 28.04 74.79 27.9 75.16C27.78 75.47 27.64 75.77 27.52 76.07C27.03 77.26 27.72 78.46 28.99 78.61C30.93 78.84 32.88 78.89 34.82 78.96C38.48 79.1 42.14 79.11 45.8 79.05C47.57 79.02 49.35 79 51.12 78.79C51.55 78.74 51.8 78.54 51.95 78.14C52.16 77.57 52.02 77.09 51.59 76.68C50.91 76.03 50.05 75.66 49.23 75.23C48.65 74.93 48.63 74.92 48.93 74.31C49.34 73.46 49.84 72.66 50.35 71.87C50.92 71 50.99 70.99 51.76 71.73C52.75 72.68 53.43 73.85 54.03 75.07C54.58 76.19 55.4 77.06 56.49 77.67C58.02 78.53 59.65 78.75 61.36 78.32C61.75 78.22 61.89 78 61.87 77.61C61.85 77.08 61.6 76.73 61.16 76.47C60.46 76.07 60.25 75.43 60.31 74.67C60.37 74.04 60.52 73.43 60.74 72.84C61.2 71.6 61.79 70.42 62.45 69.28C63.76 67.02 65.06 64.76 66 62.32C66.84 60.14 67.55 57.93 67.64 55.57C67.71 53.8 67.52 52.06 67.2 50.32C67.13 49.92 67.23 49.69 67.53 49.43C68.74 48.43 69.79 47.29 70.55 45.9C71.76 43.68 71.75 41.53 70.24 39.44L70.26 39.45ZM60.8 42.03C59.94 42.04 59.23 41.34 59.23 40.48C59.23 39.62 59.93 38.91 60.78 38.91C61.61 38.91 62.33 39.62 62.34 40.43C62.35 41.27 61.63 42.01 60.8 42.03Z" fill="white"/>
<path d="M95.72 47.86C95.72 60.55 90.68 72.72 81.7 81.7C72.73 90.67 60.55 95.72 47.86 95.72C35.17 95.72 23 90.68 14.02 81.7C5.05001 72.72 0.0100098 60.55 0.0100098 47.86C0.0100098 35.17 5.05001 22.99 14.03 14.02C23 5.05001 10.29 46.97 34.51 45.64C56 44.46 49.48 54.85 58.46 63.82C67.44 72.79 95.73 35.16 95.73 47.85L95.72 47.86Z" fill="url(#paint2_linear_7_113)"/>
<path opacity="0.8" d="M29.5999 30.05C31.2126 30.05 32.5199 28.7427 32.5199 27.13C32.5199 25.5173 31.2126 24.21 29.5999 24.21C27.9873 24.21 26.6799 25.5173 26.6799 27.13C26.6799 28.7427 27.9873 30.05 29.5999 30.05Z" fill="white"/>
<path opacity="0.8" d="M81.3799 24.68C82.1863 24.68 82.8399 24.0263 82.8399 23.22C82.8399 22.4137 82.1863 21.76 81.3799 21.76C80.5736 21.76 79.9199 22.4137 79.9199 23.22C79.9199 24.0263 80.5736 24.68 81.3799 24.68Z" fill="white"/>
<path opacity="0.8" d="M33.9 7.56L33.62 7.61L33.57 7.33C33.54 7.18 33.39 7.07 33.24 7.1H33.23C33.08 7.13 32.97 7.28 33 7.43L33.05 7.71L32.77 7.76C32.62 7.79 32.51 7.94 32.54 8.09C32.57 8.26 32.72 8.36 32.87 8.34L33.15 8.29L33.2 8.57C33.23 8.72 33.38 8.83 33.53 8.8H33.54C33.69 8.77 33.8 8.62 33.77 8.47L33.72 8.19L34 8.14C34.15 8.11 34.26 7.96 34.23 7.81C34.2 7.64 34.05 7.54 33.9 7.56Z" fill="white"/>
<path opacity="0.8" d="M89.96 53.5C90.3631 53.5 90.69 53.1732 90.69 52.77C90.69 52.3668 90.3631 52.04 89.96 52.04C89.5568 52.04 89.23 52.3668 89.23 52.77C89.23 53.1732 89.5568 53.5 89.96 53.5Z" fill="white"/>
<path opacity="0.3" d="M47.8699 88.79C70.0663 88.79 88.0599 70.7963 88.0599 48.6C88.0599 26.4037 70.0663 8.41 47.8699 8.41C25.6736 8.41 7.67993 26.4037 7.67993 48.6C7.67993 70.7963 25.6736 88.79 47.8699 88.79Z" fill="url(#paint3_linear_7_113)"/>
<path opacity="0.32" d="M47.8699 88.79C70.0663 88.79 88.0599 70.7963 88.0599 48.6C88.0599 26.4037 70.0663 8.41 47.8699 8.41C25.6736 8.41 7.67993 26.4037 7.67993 48.6C7.67993 70.7963 25.6736 88.79 47.8699 88.79Z" fill="url(#paint4_linear_7_113)"/>
<path opacity="0.8" d="M80.72 69.2C81.5263 69.2 82.18 68.5463 82.18 67.74C82.18 66.9337 81.5263 66.28 80.72 66.28C79.9137 66.28 79.26 66.9337 79.26 67.74C79.26 68.5463 79.9137 69.2 80.72 69.2Z" fill="white"/>
<path d="M22.92 50.99C23.2072 50.99 23.44 50.7572 23.44 50.47C23.44 50.1828 23.2072 49.95 22.92 49.95C22.6328 49.95 22.4 50.1828 22.4 50.47C22.4 50.7572 22.6328 50.99 22.92 50.99Z" fill="white"/>
<path d="M44.93 62.97C45.2172 62.97 45.45 62.7372 45.45 62.45C45.45 62.1628 45.2172 61.93 44.93 61.93C44.6428 61.93 44.41 62.1628 44.41 62.45C44.41 62.7372 44.6428 62.97 44.93 62.97Z" fill="white"/>
<path d="M39.26 72.93C39.5472 72.93 39.78 72.6972 39.78 72.41C39.78 72.1228 39.5472 71.89 39.26 71.89C38.9728 71.89 38.74 72.1228 38.74 72.41C38.74 72.6972 38.9728 72.93 39.26 72.93Z" fill="white"/>
<path d="M28.25 64.78C28.5372 64.78 28.77 64.5472 28.77 64.26C28.77 63.9728 28.5372 63.74 28.25 63.74C27.9628 63.74 27.73 63.9728 27.73 64.26C27.73 64.5472 27.9628 64.78 28.25 64.78Z" fill="white"/>
<path d="M13.4499 73.65C13.7371 73.65 13.9699 73.4172 13.9699 73.13C13.9699 72.8428 13.7371 72.61 13.4499 72.61C13.1627 72.61 12.9299 72.8428 12.9299 73.13C12.9299 73.4172 13.1627 73.65 13.4499 73.65Z" fill="white"/>
<path d="M22.72 80.8C23.2667 80.8 23.71 80.3568 23.71 79.81C23.71 79.2632 23.2667 78.82 22.72 78.82C22.1732 78.82 21.73 79.2632 21.73 79.81C21.73 80.3568 22.1732 80.8 22.72 80.8Z" fill="white"/>
<path d="M18.26 61.18C18.8068 61.18 19.25 60.7368 19.25 60.19C19.25 59.6432 18.8068 59.2 18.26 59.2C17.7133 59.2 17.27 59.6432 17.27 60.19C17.27 60.7368 17.7133 61.18 18.26 61.18Z" fill="white"/>
<path d="M54.73 87.55C55.2768 87.55 55.72 87.1068 55.72 86.56C55.72 86.0132 55.2768 85.57 54.73 85.57C54.1832 85.57 53.74 86.0132 53.74 86.56C53.74 87.1068 54.1832 87.55 54.73 87.55Z" fill="white"/>
<path d="M30.15 78.16C30.4869 78.16 30.76 77.8869 30.76 77.55C30.76 77.2131 30.4869 76.94 30.15 76.94C29.8131 76.94 29.54 77.2131 29.54 77.55C29.54 77.8869 29.8131 78.16 30.15 78.16Z" fill="white"/>
<path d="M22.0599 74.72C22.2035 74.72 22.3199 74.6036 22.3199 74.46C22.3199 74.3164 22.2035 74.2 22.0599 74.2C21.9163 74.2 21.7999 74.3164 21.7999 74.46C21.7999 74.6036 21.9163 74.72 22.0599 74.72Z" fill="white"/>
<path d="M12.8299 25.73C12.9735 25.73 13.0899 25.6136 13.0899 25.47C13.0899 25.3264 12.9735 25.21 12.8299 25.21C12.6864 25.21 12.5699 25.3264 12.5699 25.47C12.5699 25.6136 12.6864 25.73 12.8299 25.73Z" fill="white"/>
<path d="M12.6999 51.33C12.8435 51.33 12.9599 51.2136 12.9599 51.07C12.9599 50.9264 12.8435 50.81 12.6999 50.81C12.5563 50.81 12.4399 50.9264 12.4399 51.07C12.4399 51.2136 12.5563 51.33 12.6999 51.33Z" fill="white"/>
<path d="M12.8099 62.55C12.9535 62.55 13.0699 62.4336 13.0699 62.29C13.0699 62.1464 12.9535 62.03 12.8099 62.03C12.6663 62.03 12.5499 62.1464 12.5499 62.29C12.5499 62.4336 12.6663 62.55 12.8099 62.55Z" fill="white"/>
<path d="M35.39 86.04C35.5336 86.04 35.65 85.9236 35.65 85.78C35.65 85.6364 35.5336 85.52 35.39 85.52C35.2464 85.52 35.13 85.6364 35.13 85.78C35.13 85.9236 35.2464 86.04 35.39 86.04Z" fill="white"/>
<path d="M30.49 62.94C30.6336 62.94 30.75 62.8236 30.75 62.68C30.75 62.5364 30.6336 62.42 30.49 62.42C30.3464 62.42 30.23 62.5364 30.23 62.68C30.23 62.8236 30.3464 62.94 30.49 62.94Z" fill="white"/>
<path d="M28.47 51.38C28.6136 51.38 28.73 51.2636 28.73 51.12C28.73 50.9764 28.6136 50.86 28.47 50.86C28.3264 50.86 28.21 50.9764 28.21 51.12C28.21 51.2636 28.3264 51.38 28.47 51.38Z" fill="white"/>
<path d="M22.3199 64.07C22.4635 64.07 22.5799 63.9536 22.5799 63.81C22.5799 63.6664 22.4635 63.55 22.3199 63.55C22.1763 63.55 22.0599 63.6664 22.0599 63.81C22.0599 63.9536 22.1763 64.07 22.3199 64.07Z" fill="white"/>
<path d="M39.75 68.28C39.8936 68.28 40.01 68.1636 40.01 68.02C40.01 67.8764 39.8936 67.76 39.75 67.76C39.6064 67.76 39.49 67.8764 39.49 68.02C39.49 68.1636 39.6064 68.28 39.75 68.28Z" fill="white"/>
<path d="M29.1799 56.13C29.3235 56.13 29.4399 56.0136 29.4399 55.87C29.4399 55.7264 29.3235 55.61 29.1799 55.61C29.0363 55.61 28.9199 55.7264 28.9199 55.87C28.9199 56.0136 29.0363 56.13 29.1799 56.13Z" fill="white"/>
<path d="M38.13 61.88C38.2736 61.88 38.39 61.7636 38.39 61.62C38.39 61.4764 38.2736 61.36 38.13 61.36C37.9864 61.36 37.87 61.4764 37.87 61.62C37.87 61.7636 37.9864 61.88 38.13 61.88Z" fill="white"/>
<path d="M32.89 57C33.0336 57 33.15 56.8836 33.15 56.74C33.15 56.5964 33.0336 56.48 32.89 56.48C32.7464 56.48 32.63 56.5964 32.63 56.74C32.63 56.8836 32.7464 57 32.89 57Z" fill="white"/>
<path d="M43.6999 67.62C43.8435 67.62 43.9599 67.5036 43.9599 67.36C43.9599 67.2164 43.8435 67.1 43.6999 67.1C43.5563 67.1 43.4399 67.2164 43.4399 67.36C43.4399 67.5036 43.5563 67.62 43.6999 67.62Z" fill="white"/>
<path d="M46.89 74.68C47.1772 74.68 47.41 74.4472 47.41 74.16C47.41 73.8728 47.1772 73.64 46.89 73.64C46.6028 73.64 46.37 73.8728 46.37 74.16C46.37 74.4472 46.6028 74.68 46.89 74.68Z" fill="white"/>
<path d="M31.88 70.93C32.1672 70.93 32.4 70.6972 32.4 70.41C32.4 70.1228 32.1672 69.89 31.88 69.89C31.5928 69.89 31.36 70.1228 31.36 70.41C31.36 70.6972 31.5928 70.93 31.88 70.93Z" fill="white"/>
<path d="M37.2099 78.51C37.4971 78.51 37.7299 78.2772 37.7299 77.99C37.7299 77.7028 37.4971 77.47 37.2099 77.47C36.9228 77.47 36.6899 77.7028 36.6899 77.99C36.6899 78.2772 36.9228 78.51 37.2099 78.51Z" fill="white"/>
<path d="M17.5 69.42C18.0633 69.42 18.52 68.9633 18.52 68.4C18.52 67.8367 18.0633 67.38 17.5 67.38C16.9367 67.38 16.48 67.8367 16.48 68.4C16.48 68.9633 16.9367 69.42 17.5 69.42Z" fill="white"/>
<path d="M60.17 74.38C60.7334 74.38 61.19 73.9233 61.19 73.36C61.19 72.7967 60.7334 72.34 60.17 72.34C59.6067 72.34 59.15 72.7967 59.15 73.36C59.15 73.9233 59.6067 74.38 60.17 74.38Z" fill="white"/>
<path d="M39.1999 59.1C39.7633 59.1 40.2199 58.6433 40.2199 58.08C40.2199 57.5167 39.7633 57.06 39.1999 57.06C38.6366 57.06 38.1799 57.5167 38.1799 58.08C38.1799 58.6433 38.6366 59.1 39.1999 59.1Z" fill="white"/>
<path d="M62.23 87.7L63.28 89.54L63.68 87.46L65.51 86.41L63.69 86.06L77.89 65.61L63.16 85.53L62.39 84.18L61.99 86.25L60.16 87.3L62.23 87.7Z" fill="white"/>
<path d="M70.32 82.28L69.94 84.06L68.34 84.94L70.12 85.32L71 86.92L71.38 85.14L72.98 84.26L71.43 83.93L77.7 74.93L70.93 83.4L70.32 82.28Z" fill="white"/>
<path d="M80.8499 44.35L81.1599 43.49L82.0199 43.18L81.1599 42.86L80.8499 42.01L80.5299 42.86L79.6799 43.18L80.5299 43.49L80.8499 44.35Z" fill="white"/>
<path d="M15.34 41.68L16.34 38.99L19.03 37.99L16.34 37L15.34 34.31L14.35 37L11.66 37.99L14.35 38.99L15.34 41.68Z" fill="white"/>
<path d="M5.94003 36.45L5.69003 37.11L5.03003 37.36L5.69003 37.61L5.94003 38.27L6.18003 37.61L6.85003 37.36L6.18003 37.11L5.94003 36.45Z" fill="white"/>
<path d="M76.5899 15.07L69.1499 23.23L68.7899 22.44L68.4099 23.76L67.1699 24.34L68.4899 24.72L69.0699 25.96L69.4399 24.64L70.6899 24.06L69.6499 23.77L76.5899 15.07Z" fill="white"/>
<defs>
<linearGradient id="paint0_linear_7_113" x1="73" y1="3.97001" x2="36.13" y2="68.36" gradientUnits="userSpaceOnUse">
<stop stop-color="#49A8DF"/>
<stop offset="0.49" stop-color="#6E63AA"/>
<stop offset="1" stop-color="#170B28"/>
</linearGradient>
<linearGradient id="paint1_linear_7_113" x1="57.99" y1="36.51" x2="42.61" y2="60.91" gradientUnits="userSpaceOnUse">
<stop stop-color="#6530B0"/>
<stop offset="0.42" stop-color="#4E268A"/>
<stop offset="0.7" stop-color="#33195B"/>
<stop offset="1" stop-color="#0F071A"/>
</linearGradient>
<linearGradient id="paint2_linear_7_113" x1="48.12" y1="47.39" x2="16.29" y2="104.83" gradientUnits="userSpaceOnUse">
<stop stop-color="#664599"/>
<stop offset="0.42" stop-color="#4E268A"/>
<stop offset="0.7" stop-color="#33195B"/>
<stop offset="1" stop-color="#170B28"/>
</linearGradient>
<linearGradient id="paint3_linear_7_113" x1="81.3299" y1="92.94" x2="56.4299" y2="59.95" gradientUnits="userSpaceOnUse">
<stop/>
<stop offset="1" stop-opacity="0"/>
</linearGradient>
<linearGradient id="paint4_linear_7_113" x1="19.3499" y1="1.36" x2="40.1999" y2="35.9" gradientUnits="userSpaceOnUse">
<stop stop-color="white"/>
<stop offset="1" stop-color="white" stop-opacity="0"/>
</linearGradient>
</defs>
</svg>
