<svg viewBox="0 0 96 96" fill="none" xmlns="http://www.w3.org/2000/svg">
<path d="M94.0885 60.2395C87.2476 85.7686 61.0072 100.916 35.4815 94.0785C9.95247 87.2343 -5.19827 60.9971 1.64262 35.468C4.92638 23.209 12.9464 12.7583 23.9373 6.41141C34.9281 0.0645414 47.9907 -1.65474 60.2497 1.63232C85.7787 8.47323 100.926 34.7137 94.0885 60.2395Z" fill="url(#paint0_linear_7_220)"/>
<path d="M95.7188 47.8521C95.7188 60.5425 90.6762 72.7159 81.7044 81.6911C72.7292 90.6663 60.5592 95.7056 47.8655 95.7056C35.1718 95.7056 23.0018 90.663 14.0266 81.6911C5.05477 72.7159 0.012207 60.5458 0.012207 47.8521C0.012207 35.1584 8.88527 38.5179 20.6534 33.7685C30.732 29.7008 41.5549 44.0479 54.2453 44.0479C66.9357 44.0479 71.886 39.6048 79.6162 36.4693C90.3337 32.1216 95.7188 35.1617 95.7188 47.8521Z" fill="url(#paint1_linear_7_220)"/>
<path d="M70.2524 39.4467C69.0502 37.7801 67.6867 36.2683 66.0662 35.0003C64.8311 34.0353 63.5268 33.1921 61.9491 32.9088C61.6264 32.8495 61.6395 32.6585 61.6988 32.4247C62.1698 30.5308 62.1171 28.6271 61.7943 26.7168C61.32 23.9303 60.3352 21.3218 59.054 18.8186C58.1219 16.9972 57.0844 15.2417 55.6912 13.7167C55.0391 13.0053 54.5253 12.7286 53.5273 13.753C53.2177 14.0691 52.9805 14.4413 52.7533 14.8168C52.2428 15.6699 51.8574 16.5822 51.4918 17.5011C51.213 18.206 51.3502 18.7999 51.9035 19.283C51.9398 19.3126 51.9727 19.3456 52.0089 19.3785C55.655 22.6952 57.8716 26.8222 58.942 31.6012C58.998 31.8516 59.0804 32.1085 59.0277 32.4049C58.8762 32.2764 58.8762 32.1282 58.8432 31.9932C58.4249 30.2443 57.8617 28.548 57.0844 26.9243C55.4804 23.5713 53.2309 20.8145 49.7923 19.2039C47.9248 18.3311 45.9651 17.8766 43.8868 18.1862C42.599 18.3772 42.184 18.8845 42.2334 20.1822C42.2334 20.2283 42.2433 20.2777 42.2433 20.3238C42.2927 21.6874 42.6286 22.9949 43.0272 24.2893C43.9856 27.3985 45.504 30.1553 47.994 32.3193C48.9195 33.1229 49.8483 33.9233 50.8496 34.6347C51.1328 34.8356 51.2217 34.9476 50.8331 35.1716C49.5683 35.9093 48.5835 36.9238 48.0039 38.2939C47.8524 38.6562 47.6811 39.0087 47.4933 39.3545C47.2266 39.8551 46.8445 40.2207 46.2714 40.3887C45.7741 40.5336 45.2965 40.7444 44.8156 40.9354C40.4351 42.6745 36.3048 44.845 32.8136 48.0794C30.4125 50.3026 28.5615 52.9079 27.4153 55.9874C26.2592 59.0966 25.976 62.3079 26.3054 65.5917C26.4239 66.7807 26.5886 66.56 25.5182 67.0804C24.7277 67.4658 24.2732 68.1015 24.204 68.9578C24.0756 70.5388 24.507 71.9419 25.6433 73.0914C26.1967 73.648 26.8817 74.0004 27.5701 74.3495C27.9291 74.5307 28.051 74.781 27.9061 75.1532C27.7842 75.4595 27.6492 75.7592 27.524 76.0655C27.0333 77.2578 27.7249 78.4501 28.993 78.6016C30.9296 78.8322 32.8795 78.8783 34.8227 78.9508C38.4819 79.0891 42.1445 79.099 45.8037 79.043C47.5757 79.0166 49.3543 78.9936 51.1196 78.7795C51.5511 78.7268 51.8047 78.5292 51.9496 78.1339C52.1604 77.5608 52.0221 77.0866 51.5939 76.6781C50.9088 76.0293 50.0525 75.6538 49.2291 75.2322C48.6428 74.9325 48.6297 74.9226 48.9261 74.3133C49.3378 73.4635 49.8318 72.6599 50.3489 71.8694C50.9187 70.9966 50.9879 70.9867 51.7586 71.7311C52.7467 72.6862 53.4285 73.8489 54.0279 75.0675C54.5813 76.1874 55.3981 77.0569 56.4817 77.6662C58.0165 78.5292 59.6403 78.7433 61.3563 78.3151C61.7515 78.2163 61.8833 77.9956 61.8701 77.6037C61.8503 77.0767 61.5967 76.721 61.1554 76.4673C60.4571 76.0655 60.2397 75.4331 60.3089 74.6657C60.3649 74.0333 60.523 73.4273 60.7404 72.8345C61.1982 71.5927 61.791 70.4136 62.4564 69.2707C63.7639 67.0113 65.0649 64.7485 66.0102 62.3079C66.8501 60.1308 67.5549 57.9241 67.6537 55.5625C67.7295 53.7939 67.5384 52.0482 67.2124 50.3158C67.1399 49.9205 67.242 49.6834 67.5483 49.4298C68.7538 48.4285 69.8045 47.2889 70.5653 45.9056C71.7774 43.6889 71.7642 41.5382 70.2557 39.4401L70.2524 39.4467ZM60.7898 42.0224C59.9301 42.0322 59.222 41.3373 59.2187 40.4743C59.2154 39.6114 59.917 38.9 60.7667 38.9099C61.6 38.9164 62.318 39.6147 62.3312 40.4282C62.3444 41.2648 61.6231 42.0125 60.7898 42.0224Z" fill="white"/>
<path d="M95.7188 47.8521C95.7188 60.5425 90.6762 72.7159 81.7044 81.6911C72.7292 90.6663 60.5592 95.7056 47.8655 95.7056C35.1718 95.7056 23.0018 90.663 14.0266 81.6911C5.05477 72.7159 0.012207 60.5458 0.012207 47.8521C0.012207 35.1584 5.05477 22.9883 14.0266 14.0131C23.0018 5.03795 10.2884 46.9661 34.5032 45.6355C55.9909 44.4564 49.4761 54.8412 58.4513 63.8164C67.4264 72.7916 95.7188 35.1617 95.7188 47.8521Z" fill="url(#paint2_linear_7_220)"/>
<path opacity="0.8" d="M29.599 30.0532C31.2124 30.0532 32.5204 28.7452 32.5204 27.1318C32.5204 25.5183 31.2124 24.2103 29.599 24.2103C27.9855 24.2103 26.6775 25.5183 26.6775 27.1318C26.6775 28.7452 27.9855 30.0532 29.599 30.0532Z" fill="white"/>
<path opacity="0.8" d="M81.3784 24.6813C82.1842 24.6813 82.8375 24.028 82.8375 23.2222C82.8375 22.4164 82.1842 21.7631 81.3784 21.7631C80.5726 21.7631 79.9193 22.4164 79.9193 23.2222C79.9193 24.028 80.5726 24.6813 81.3784 24.6813Z" fill="white"/>
<path opacity="0.8" d="M33.9005 7.56089L33.6173 7.61029L33.5679 7.32704C33.5415 7.17224 33.3933 7.07014 33.2385 7.09649H33.2253C33.0705 7.12613 32.9684 7.27434 32.9948 7.42914L33.0442 7.7124L32.7609 7.7618C32.6061 7.78815 32.504 7.93637 32.5304 8.09117V8.10434C32.56 8.25914 32.7082 8.36125 32.863 8.3349L33.1463 8.28549L33.1957 8.56875C33.2221 8.72355 33.3703 8.82565 33.5251 8.7993H33.5382C33.693 8.76966 33.7951 8.62145 33.7688 8.46664L33.7194 8.18339L34.0026 8.13398C34.1574 8.10764 34.2595 7.95942 34.2332 7.80462V7.79145C34.2036 7.63664 34.0553 7.53454 33.9005 7.56089Z" fill="white"/>
<path opacity="0.8" d="M89.9615 53.5007C90.3654 53.5007 90.6927 53.1734 90.6927 52.7696C90.6927 52.3657 90.3654 52.0384 89.9615 52.0384C89.5577 52.0384 89.2303 52.3657 89.2303 52.7696C89.2303 53.1734 89.5577 53.5007 89.9615 53.5007Z" fill="white"/>
<path opacity="0.3" d="M47.8656 88.7856C70.0578 88.7856 88.048 70.7953 88.048 48.6031C88.048 26.4109 70.0578 8.42053 47.8656 8.42053C25.6735 8.42053 7.68323 26.4109 7.68323 48.6031C7.68323 70.7953 25.6735 88.7856 47.8656 88.7856Z" fill="url(#paint3_linear_7_220)"/>
<path opacity="0.32" d="M47.8656 88.7856C70.0578 88.7856 88.048 70.7953 88.048 48.6031C88.048 26.4109 70.0578 8.42053 47.8656 8.42053C25.6735 8.42053 7.68323 26.4109 7.68323 48.6031C7.68323 70.7953 25.6735 88.7856 47.8656 88.7856Z" fill="url(#paint4_linear_7_220)"/>
<path opacity="0.8" d="M80.7196 69.1917C81.5254 69.1917 82.1787 68.5384 82.1787 67.7326C82.1787 66.9268 81.5254 66.2735 80.7196 66.2735C79.9138 66.2735 79.2605 66.9268 79.2605 67.7326C79.2605 68.5384 79.9138 69.1917 80.7196 69.1917Z" fill="white"/>
<path d="M22.9196 50.9844C23.2088 50.9844 23.4433 50.7499 23.4433 50.4607C23.4433 50.1715 23.2088 49.937 22.9196 49.937C22.6303 49.937 22.3959 50.1715 22.3959 50.4607C22.3959 50.7499 22.6303 50.9844 22.9196 50.9844Z" fill="white"/>
<path d="M44.9276 62.9733C45.2168 62.9733 45.4513 62.7388 45.4513 62.4496C45.4513 62.1603 45.2168 61.9259 44.9276 61.9259C44.6384 61.9259 44.4039 62.1603 44.4039 62.4496C44.4039 62.7388 44.6384 62.9733 44.9276 62.9733Z" fill="white"/>
<path d="M39.2593 72.93C39.5485 72.93 39.783 72.6955 39.783 72.4063C39.783 72.1171 39.5485 71.8826 39.2593 71.8826C38.9701 71.8826 38.7356 72.1171 38.7356 72.4063C38.7356 72.6955 38.9701 72.93 39.2593 72.93Z" fill="white"/>
<path d="M28.2487 64.7782C28.5379 64.7782 28.7724 64.5437 28.7724 64.2545C28.7724 63.9653 28.5379 63.7308 28.2487 63.7308C27.9594 63.7308 27.725 63.9653 27.725 64.2545C27.725 64.5437 27.9594 64.7782 28.2487 64.7782Z" fill="white"/>
<path d="M13.447 73.6513C13.7363 73.6513 13.9707 73.4168 13.9707 73.1276C13.9707 72.8384 13.7363 72.6039 13.447 72.6039C13.1578 72.6039 12.9233 72.8384 12.9233 73.1276C12.9233 73.4168 13.1578 73.6513 13.447 73.6513Z" fill="white"/>
<path d="M22.7153 80.7952C23.2628 80.7952 23.7066 80.3514 23.7066 79.8038C23.7066 79.2563 23.2628 78.8124 22.7153 78.8124C22.1677 78.8124 21.7239 79.2563 21.7239 79.8038C21.7239 80.3514 22.1677 80.7952 22.7153 80.7952Z" fill="white"/>
<path d="M18.2591 61.1782C18.8066 61.1782 19.2505 60.7344 19.2505 60.1868C19.2505 59.6393 18.8066 59.1954 18.2591 59.1954C17.7116 59.1954 17.2677 59.6393 17.2677 60.1868C17.2677 60.7344 17.7116 61.1782 18.2591 61.1782Z" fill="white"/>
<path d="M54.723 87.5439C55.2705 87.5439 55.7143 87.1 55.7143 86.5525C55.7143 86.005 55.2705 85.5611 54.723 85.5611C54.1754 85.5611 53.7316 86.005 53.7316 86.5525C53.7316 87.1 54.1754 87.5439 54.723 87.5439Z" fill="white"/>
<path d="M30.1491 78.1537C30.4875 78.1537 30.7617 77.8794 30.7617 77.5411C30.7617 77.2027 30.4875 76.9285 30.1491 76.9285C29.8108 76.9285 29.5365 77.2027 29.5365 77.5411C29.5365 77.8794 29.8108 78.1537 30.1491 78.1537Z" fill="white"/>
<path d="M22.0632 74.7184C22.2087 74.7184 22.3267 74.6004 22.3267 74.4549C22.3267 74.3094 22.2087 74.1914 22.0632 74.1914C21.9177 74.1914 21.7997 74.3094 21.7997 74.4549C21.7997 74.6004 21.9177 74.7184 22.0632 74.7184Z" fill="white"/>
<path d="M12.8311 25.7254C12.9766 25.7254 13.0946 25.6074 13.0946 25.4619C13.0946 25.3163 12.9766 25.1984 12.8311 25.1984C12.6856 25.1984 12.5676 25.3163 12.5676 25.4619C12.5676 25.6074 12.6856 25.7254 12.8311 25.7254Z" fill="white"/>
<path d="M12.7026 51.3335C12.8481 51.3335 12.9661 51.2155 12.9661 51.07C12.9661 50.9245 12.8481 50.8065 12.7026 50.8065C12.5571 50.8065 12.4391 50.9245 12.4391 51.07C12.4391 51.2155 12.5571 51.3335 12.7026 51.3335Z" fill="white"/>
<path d="M12.8048 62.5484C12.9503 62.5484 13.0682 62.4304 13.0682 62.2849C13.0682 62.1394 12.9503 62.0214 12.8048 62.0214C12.6592 62.0214 12.5413 62.1394 12.5413 62.2849C12.5413 62.4304 12.6592 62.5484 12.8048 62.5484Z" fill="white"/>
<path d="M35.3925 86.0387C35.538 86.0387 35.656 85.9207 35.656 85.7752C35.656 85.6297 35.538 85.5117 35.3925 85.5117C35.247 85.5117 35.129 85.6297 35.129 85.7752C35.129 85.9207 35.247 86.0387 35.3925 86.0387Z" fill="white"/>
<path d="M30.4883 62.9436C30.6339 62.9436 30.7518 62.8256 30.7518 62.6801C30.7518 62.5346 30.6339 62.4166 30.4883 62.4166C30.3428 62.4166 30.2249 62.5346 30.2249 62.6801C30.2249 62.8256 30.3428 62.9436 30.4883 62.9436Z" fill="white"/>
<path d="M28.4726 51.3763C28.6181 51.3763 28.7361 51.2584 28.7361 51.1128C28.7361 50.9673 28.6181 50.8493 28.4726 50.8493C28.3271 50.8493 28.2091 50.9673 28.2091 51.1128C28.2091 51.2584 28.3271 51.3763 28.4726 51.3763Z" fill="white"/>
<path d="M22.3135 64.0668C22.4591 64.0668 22.577 63.9488 22.577 63.8033C22.577 63.6577 22.4591 63.5398 22.3135 63.5398C22.168 63.5398 22.05 63.6577 22.05 63.8033C22.05 63.9488 22.168 64.0668 22.3135 64.0668Z" fill="white"/>
<path d="M39.7534 68.2793C39.8989 68.2793 40.0169 68.1614 40.0169 68.0158C40.0169 67.8703 39.8989 67.7523 39.7534 67.7523C39.6078 67.7523 39.4899 67.8703 39.4899 68.0158C39.4899 68.1614 39.6078 68.2793 39.7534 68.2793Z" fill="white"/>
<path d="M29.1807 56.1258C29.3262 56.1258 29.4442 56.0078 29.4442 55.8623C29.4442 55.7168 29.3262 55.5988 29.1807 55.5988C29.0352 55.5988 28.9172 55.7168 28.9172 55.8623C28.9172 56.0078 29.0352 56.1258 29.1807 56.1258Z" fill="white"/>
<path d="M38.1263 61.8798C38.2718 61.8798 38.3898 61.7618 38.3898 61.6163C38.3898 61.4708 38.2718 61.3528 38.1263 61.3528C37.9808 61.3528 37.8628 61.4708 37.8628 61.6163C37.8628 61.7618 37.9808 61.8798 38.1263 61.8798Z" fill="white"/>
<path d="M32.886 56.9986C33.0316 56.9986 33.1495 56.8806 33.1495 56.7351C33.1495 56.5896 33.0316 56.4716 32.886 56.4716C32.7405 56.4716 32.6226 56.5896 32.6226 56.7351C32.6226 56.8806 32.7405 56.9986 32.886 56.9986Z" fill="white"/>
<path d="M43.6957 67.6173C43.8413 67.6173 43.9592 67.4993 43.9592 67.3538C43.9592 67.2083 43.8413 67.0903 43.6957 67.0903C43.5502 67.0903 43.4323 67.2083 43.4323 67.3538C43.4323 67.4993 43.5502 67.6173 43.6957 67.6173Z" fill="white"/>
<path d="M46.884 74.6756C47.1733 74.6756 47.4077 74.4411 47.4077 74.1519C47.4077 73.8627 47.1733 73.6282 46.884 73.6282C46.5948 73.6282 46.3604 73.8627 46.3604 74.1519C46.3604 74.4411 46.5948 74.6756 46.884 74.6756Z" fill="white"/>
<path d="M31.8815 70.9241C32.1707 70.9241 32.4052 70.6897 32.4052 70.4004C32.4052 70.1112 32.1707 69.8767 31.8815 69.8767C31.5923 69.8767 31.3578 70.1112 31.3578 70.4004C31.3578 70.6897 31.5923 70.9241 31.8815 70.9241Z" fill="white"/>
<path d="M37.2139 78.5127C37.5031 78.5127 37.7376 78.2782 37.7376 77.989C37.7376 77.6998 37.5031 77.4653 37.2139 77.4653C36.9246 77.4653 36.6902 77.6998 36.6902 77.989C36.6902 78.2782 36.9246 78.5127 37.2139 78.5127Z" fill="white"/>
<path d="M17.5015 69.4189C18.0654 69.4189 18.5225 68.9618 18.5225 68.3979C18.5225 67.834 18.0654 67.3769 17.5015 67.3769C16.9376 67.3769 16.4805 67.834 16.4805 68.3979C16.4805 68.9618 16.9376 69.4189 17.5015 69.4189Z" fill="white"/>
<path d="M60.1673 74.3759C60.7312 74.3759 61.1883 73.9187 61.1883 73.3548C61.1883 72.7909 60.7312 72.3338 60.1673 72.3338C59.6034 72.3338 59.1462 72.7909 59.1462 73.3548C59.1462 73.9187 59.6034 74.3759 60.1673 74.3759Z" fill="white"/>
<path d="M39.1967 59.0999C39.7606 59.0999 40.2177 58.6428 40.2177 58.0789C40.2177 57.515 39.7606 57.0579 39.1967 57.0579C38.6328 57.0579 38.1757 57.515 38.1757 58.0789C38.1757 58.6428 38.6328 59.0999 39.1967 59.0999Z" fill="white"/>
<path d="M62.2259 87.6987L63.2733 89.53L63.6784 87.4583L65.5129 86.4076L63.6817 86.0519L77.8871 65.6049L63.1613 85.5216L62.3906 84.1712L61.9854 86.2462L60.1542 87.2936L62.2259 87.6987Z" fill="white"/>
<path d="M70.3183 82.2774L69.9363 84.0592L68.3389 84.932L70.1174 85.3141L70.9935 86.9115L71.3756 85.1296L72.973 84.2568L71.425 83.9242L77.6928 74.9193L70.931 83.3972L70.3183 82.2774Z" fill="white"/>
<path d="M80.8448 44.3444L81.161 43.4913L82.014 43.1718L81.161 42.8556L80.8448 42.0026L80.5253 42.8556L79.6722 43.1718L80.5253 43.4913L80.8448 44.3444Z" fill="white"/>
<path d="M15.3442 41.6732L16.3421 38.9889L19.0264 37.9909L16.3421 36.9929L15.3442 34.3086L14.3462 36.9929L11.6619 37.9909L14.3462 38.9889L15.3442 41.6732Z" fill="white"/>
<path d="M76.5828 15.0638L69.149 23.2255L68.7867 22.4416L68.4113 23.7624L67.1663 24.342L68.487 24.7175L69.0667 25.9625L69.4422 24.6418L70.6839 24.0621L69.6431 23.7657L76.5828 15.0638Z" fill="white"/>
<defs>
<linearGradient id="paint0_linear_7_220" x1="72.9993" y1="3.96752" x2="36.1302" y2="68.3616" gradientUnits="userSpaceOnUse">
<stop stop-color="#CECECE"/>
<stop offset="0.49" stop-color="#9A98A7"/>
<stop offset="1" stop-color="#170B28"/>
</linearGradient>
<linearGradient id="paint1_linear_7_220" x1="57.9836" y1="36.5088" x2="42.6088" y2="60.9048" gradientUnits="userSpaceOnUse">
<stop stop-color="#57525E"/>
<stop offset="0.42" stop-color="#564372"/>
<stop offset="0.7" stop-color="#211B2B"/>
<stop offset="1"/>
</linearGradient>
<linearGradient id="paint2_linear_7_220" x1="48.1224" y1="47.3877" x2="16.2892" y2="104.826" gradientUnits="userSpaceOnUse">
<stop stop-color="#837A92"/>
<stop offset="0.42" stop-color="#6D5C87"/>
<stop offset="0.7" stop-color="#544B61"/>
<stop offset="1"/>
</linearGradient>
<linearGradient id="paint3_linear_7_220" x1="81.3224" y1="92.9323" x2="56.429" y2="59.9465" gradientUnits="userSpaceOnUse">
<stop/>
<stop offset="1" stop-opacity="0"/>
</linearGradient>
<linearGradient id="paint4_linear_7_220" x1="19.3493" y1="1.35565" x2="40.1981" y2="35.8994" gradientUnits="userSpaceOnUse">
<stop stop-color="white"/>
<stop offset="1" stop-color="white" stop-opacity="0"/>
</linearGradient>
</defs>
</svg>
