<svg width="291" height="418" viewBox="0 0 291 418" fill="none" xmlns="http://www.w3.org/2000/svg">
<g clip-path="url(#clip0_1_73)">
<path d="M285.67 182.9C264.9 260.41 185.23 306.4 107.73 285.64C30.22 264.86 -15.78 185.19 4.98999 107.69C14.96 70.47 39.31 38.73 72.68 19.47C106.05 0.200003 145.71 -5.02 182.93 4.95C260.44 25.72 306.43 105.39 285.67 182.89V182.9Z" fill="url(#paint0_linear_1_73)"/>
<path d="M290.62 145.29C290.62 183.82 275.31 220.78 248.07 248.03C220.82 275.28 183.87 290.58 145.33 290.58C106.79 290.58 69.84 275.27 42.59 248.03C15.34 220.78 0.039978 183.82 0.039978 145.29C0.039978 106.76 26.98 116.95 62.71 102.53C93.31 90.18 126.17 133.74 164.7 133.74C203.23 133.74 218.26 120.25 241.73 110.73C274.27 97.53 290.62 106.76 290.62 145.29Z" fill="url(#paint1_linear_1_73)"/>
<path d="M213.3 119.77C209.65 114.71 205.51 110.12 200.59 106.27C196.84 103.34 192.88 100.78 188.09 99.92C187.11 99.74 187.15 99.16 187.33 98.45C188.76 92.7 188.6 86.92 187.62 81.12C186.18 72.66 183.19 64.74 179.3 57.14C176.47 51.61 173.32 46.28 169.09 41.65C167.11 39.49 165.55 38.65 162.52 41.76C161.58 42.72 160.86 43.85 160.17 44.99C158.62 47.58 157.45 50.35 156.34 53.14C155.493 55.28 155.91 57.0833 157.59 58.55C157.7 58.64 157.8 58.74 157.91 58.84C168.98 68.91 175.71 81.44 178.96 95.95C179.13 96.71 179.38 97.49 179.22 98.39C178.76 98 178.76 97.55 178.66 97.14C177.39 91.83 175.68 86.68 173.32 81.75C168.45 71.57 161.62 63.2 151.18 58.31C145.51 55.66 139.56 54.28 133.25 55.22C129.34 55.8 128.08 57.34 128.23 61.28C128.23 61.42 128.26 61.57 128.26 61.71C128.41 65.85 129.43 69.82 130.64 73.75C133.55 83.19 138.16 91.56 145.72 98.13C148.53 100.57 151.35 103 154.39 105.16C155.25 105.77 155.52 106.11 154.34 106.79C150.5 109.03 147.51 112.11 145.75 116.27C145.29 117.37 144.77 118.44 144.2 119.49C143.39 121.01 142.23 122.12 140.49 122.63C138.98 123.07 137.53 123.71 136.07 124.29C122.77 129.57 110.23 136.16 99.63 145.98C92.34 152.73 86.72 160.64 83.24 169.99C79.73 179.43 78.87 189.18 79.87 199.15C80.23 202.76 80.73 202.09 77.48 203.67C75.08 204.84 73.7 206.77 73.49 209.37C73.1 214.17 74.41 218.43 77.86 221.92C79.54 223.61 81.62 224.68 83.71 225.74C84.8 226.29 85.17 227.05 84.73 228.18C84.36 229.11 83.95 230.02 83.57 230.95C82.08 234.57 84.18 238.19 88.03 238.65C93.91 239.35 99.83 239.49 105.73 239.71C116.84 240.13 127.96 240.16 139.07 239.99C144.45 239.91 149.85 239.84 155.21 239.19C156.52 239.03 157.29 238.43 157.73 237.23C158.37 235.49 157.95 234.05 156.65 232.81C154.57 230.84 151.97 229.7 149.47 228.42C147.69 227.51 147.65 227.48 148.55 225.63C149.8 223.05 151.3 220.61 152.87 218.21C154.6 215.56 154.81 215.53 157.15 217.79C160.15 220.69 162.22 224.22 164.04 227.92C165.72 231.32 168.2 233.96 171.49 235.81C176.15 238.43 181.08 239.08 186.29 237.78C187.49 237.48 187.89 236.81 187.85 235.62C187.79 234.02 187.02 232.94 185.68 232.17C183.56 230.95 182.9 229.03 183.11 226.7C183.28 224.78 183.76 222.94 184.42 221.14C185.81 217.37 187.61 213.79 189.63 210.32C193.6 203.46 197.55 196.59 200.42 189.18C202.97 182.57 205.11 175.87 205.41 168.7C205.64 163.33 205.06 158.03 204.07 152.77C203.85 151.57 204.16 150.85 205.09 150.08C208.75 147.04 211.94 143.58 214.25 139.38C217.93 132.65 217.89 126.12 213.31 119.75L213.3 119.77ZM184.57 127.59C181.96 127.62 179.81 125.51 179.8 122.89C179.79 120.27 181.92 118.11 184.5 118.14C187.03 118.16 189.21 120.28 189.25 122.75C189.29 125.29 187.1 127.56 184.57 127.59Z" fill="white"/>
<path d="M290.62 145.29C290.62 183.82 275.31 220.78 248.07 248.03C220.82 275.28 183.87 290.58 145.33 290.58C106.79 290.58 69.84 275.27 42.59 248.03C15.34 220.78 0.039978 183.82 0.039978 145.29C0.039978 106.76 15.34 69.8 42.59 42.56C69.84 15.31 31.24 142.61 104.76 138.57C170 134.99 150.22 166.52 177.47 193.77C204.72 221.02 290.62 106.77 290.62 145.3V145.29Z" fill="url(#paint2_linear_1_73)"/>
<path opacity="0.8" d="M89.86 91.24C94.7588 91.24 98.73 87.2688 98.73 82.37C98.73 77.4712 94.7588 73.5 89.86 73.5C84.9612 73.5 80.99 77.4712 80.99 82.37C80.99 87.2688 84.9612 91.24 89.86 91.24Z" fill="white"/>
<path opacity="0.8" d="M247.08 74.93C249.527 74.93 251.51 72.9466 251.51 70.5C251.51 68.0534 249.527 66.07 247.08 66.07C244.633 66.07 242.65 68.0534 242.65 70.5C242.65 72.9466 244.633 74.93 247.08 74.93Z" fill="white"/>
<path opacity="0.8" d="M102.92 22.96L102.06 23.11L101.91 22.25C101.83 21.78 101.38 21.47 100.91 21.55H100.87C100.4 21.64 100.09 22.09 100.17 22.56L100.32 23.42L99.46 23.57C98.99 23.65 98.68 24.1 98.76 24.57V24.61C98.85 25.08 99.3 25.39 99.77 25.31L100.63 25.16L100.78 26.02C100.86 26.49 101.31 26.8 101.78 26.72H101.82C102.29 26.63 102.6 26.18 102.52 25.71L102.37 24.85L103.23 24.7C103.7 24.62 104.01 24.17 103.93 23.7V23.66C103.84 23.19 103.39 22.88 102.92 22.96Z" fill="white"/>
<path opacity="0.8" d="M273.13 162.44C274.356 162.44 275.35 161.446 275.35 160.22C275.35 158.994 274.356 158 273.13 158C271.904 158 270.91 158.994 270.91 160.22C270.91 161.446 271.904 162.44 273.13 162.44Z" fill="white"/>
<path opacity="0.3" d="M145.33 269.56C212.709 269.56 267.33 214.939 267.33 147.56C267.33 80.1813 212.709 25.56 145.33 25.56C77.9512 25.56 23.33 80.1813 23.33 147.56C23.33 214.939 77.9512 269.56 145.33 269.56Z" fill="url(#paint3_linear_1_73)"/>
<path opacity="0.32" d="M145.33 269.56C212.709 269.56 267.33 214.939 267.33 147.56C267.33 80.1813 212.709 25.56 145.33 25.56C77.9512 25.56 23.33 80.1813 23.33 147.56C23.33 214.939 77.9512 269.56 145.33 269.56Z" fill="url(#paint4_linear_1_73)"/>
<path opacity="0.8" d="M245.08 210.08C247.527 210.08 249.51 208.097 249.51 205.65C249.51 203.203 247.527 201.22 245.08 201.22C242.633 201.22 240.65 203.203 240.65 205.65C240.65 208.097 242.633 210.08 245.08 210.08Z" fill="white"/>
<path d="M69.59 154.8C70.4681 154.8 71.18 154.088 71.18 153.21C71.18 152.332 70.4681 151.62 69.59 151.62C68.7119 151.62 68 152.332 68 153.21C68 154.088 68.7119 154.8 69.59 154.8Z" fill="white"/>
<path d="M136.4 191.19C137.278 191.19 137.99 190.478 137.99 189.6C137.99 188.722 137.278 188.01 136.4 188.01C135.522 188.01 134.81 188.722 134.81 189.6C134.81 190.478 135.522 191.19 136.4 191.19Z" fill="white"/>
<path d="M119.2 221.42C120.078 221.42 120.79 220.708 120.79 219.83C120.79 218.952 120.078 218.24 119.2 218.24C118.322 218.24 117.61 218.952 117.61 219.83C117.61 220.708 118.322 221.42 119.2 221.42Z" fill="white"/>
<path d="M85.76 196.68C86.6381 196.68 87.35 195.968 87.35 195.09C87.35 194.212 86.6381 193.5 85.76 193.5C84.8819 193.5 84.17 194.212 84.17 195.09C84.17 195.968 84.8819 196.68 85.76 196.68Z" fill="white"/>
<path d="M40.83 223.62C41.7081 223.62 42.42 222.908 42.42 222.03C42.42 221.152 41.7081 220.44 40.83 220.44C39.9519 220.44 39.24 221.152 39.24 222.03C39.24 222.908 39.9519 223.62 40.83 223.62Z" fill="white"/>
<path d="M68.96 245.31C70.6224 245.31 71.97 243.962 71.97 242.3C71.97 240.638 70.6224 239.29 68.96 239.29C67.2976 239.29 65.95 240.638 65.95 242.3C65.95 243.962 67.2976 245.31 68.96 245.31Z" fill="white"/>
<path d="M55.43 185.75C57.0924 185.75 58.44 184.402 58.44 182.74C58.44 181.078 57.0924 179.73 55.43 179.73C53.7676 179.73 52.42 181.078 52.42 182.74C52.42 184.402 53.7676 185.75 55.43 185.75Z" fill="white"/>
<path d="M166.15 265.8C167.812 265.8 169.16 264.452 169.16 262.79C169.16 261.128 167.812 259.78 166.15 259.78C164.488 259.78 163.14 261.128 163.14 262.79C163.14 264.452 164.488 265.8 166.15 265.8Z" fill="white"/>
<path d="M91.53 237.29C92.5572 237.29 93.39 236.457 93.39 235.43C93.39 234.403 92.5572 233.57 91.53 233.57C90.5027 233.57 89.67 234.403 89.67 235.43C89.67 236.457 90.5027 237.29 91.53 237.29Z" fill="white"/>
<path d="M66.98 226.86C67.4218 226.86 67.78 226.502 67.78 226.06C67.78 225.618 67.4218 225.26 66.98 225.26C66.5382 225.26 66.18 225.618 66.18 226.06C66.18 226.502 66.5382 226.86 66.98 226.86Z" fill="white"/>
<path d="M38.96 78.11C39.4018 78.11 39.76 77.7518 39.76 77.31C39.76 76.8682 39.4018 76.51 38.96 76.51C38.5181 76.51 38.16 76.8682 38.16 77.31C38.16 77.7518 38.5181 78.11 38.96 78.11Z" fill="white"/>
<path d="M38.56 155.86C39.0018 155.86 39.36 155.502 39.36 155.06C39.36 154.618 39.0018 154.26 38.56 154.26C38.1182 154.26 37.76 154.618 37.76 155.06C37.76 155.502 38.1182 155.86 38.56 155.86Z" fill="white"/>
<path d="M38.88 189.91C39.3218 189.91 39.68 189.552 39.68 189.11C39.68 188.668 39.3218 188.31 38.88 188.31C38.4382 188.31 38.08 188.668 38.08 189.11C38.08 189.552 38.4382 189.91 38.88 189.91Z" fill="white"/>
<path d="M107.45 261.23C107.892 261.23 108.25 260.872 108.25 260.43C108.25 259.988 107.892 259.63 107.45 259.63C107.008 259.63 106.65 259.988 106.65 260.43C106.65 260.872 107.008 261.23 107.45 261.23Z" fill="white"/>
<path d="M92.56 191.11C93.0018 191.11 93.36 190.752 93.36 190.31C93.36 189.868 93.0018 189.51 92.56 189.51C92.1181 189.51 91.76 189.868 91.76 190.31C91.76 190.752 92.1181 191.11 92.56 191.11Z" fill="white"/>
<path d="M86.44 155.99C86.8818 155.99 87.24 155.632 87.24 155.19C87.24 154.748 86.8818 154.39 86.44 154.39C85.9982 154.39 85.64 154.748 85.64 155.19C85.64 155.632 85.9982 155.99 86.44 155.99Z" fill="white"/>
<path d="M67.75 194.52C68.1918 194.52 68.55 194.162 68.55 193.72C68.55 193.278 68.1918 192.92 67.75 192.92C67.3082 192.92 66.95 193.278 66.95 193.72C66.95 194.162 67.3082 194.52 67.75 194.52Z" fill="white"/>
<path d="M120.69 207.31C121.132 207.31 121.49 206.952 121.49 206.51C121.49 206.068 121.132 205.71 120.69 205.71C120.248 205.71 119.89 206.068 119.89 206.51C119.89 206.952 120.248 207.31 120.69 207.31Z" fill="white"/>
<path d="M88.59 170.41C89.0318 170.41 89.39 170.052 89.39 169.61C89.39 169.168 89.0318 168.81 88.59 168.81C88.1481 168.81 87.79 169.168 87.79 169.61C87.79 170.052 88.1481 170.41 88.59 170.41Z" fill="white"/>
<path d="M115.75 187.87C116.192 187.87 116.55 187.512 116.55 187.07C116.55 186.628 116.192 186.27 115.75 186.27C115.308 186.27 114.95 186.628 114.95 187.07C114.95 187.512 115.308 187.87 115.75 187.87Z" fill="white"/>
<path d="M99.85 173.06C100.292 173.06 100.65 172.702 100.65 172.26C100.65 171.818 100.292 171.46 99.85 171.46C99.4082 171.46 99.05 171.818 99.05 172.26C99.05 172.702 99.4082 173.06 99.85 173.06Z" fill="white"/>
<path d="M132.66 205.3C133.102 205.3 133.46 204.942 133.46 204.5C133.46 204.058 133.102 203.7 132.66 203.7C132.218 203.7 131.86 204.058 131.86 204.5C131.86 204.942 132.218 205.3 132.66 205.3Z" fill="white"/>
<path d="M142.35 226.73C143.228 226.73 143.94 226.018 143.94 225.14C143.94 224.262 143.228 223.55 142.35 223.55C141.472 223.55 140.76 224.262 140.76 225.14C140.76 226.018 141.472 226.73 142.35 226.73Z" fill="white"/>
<path d="M96.8 215.34C97.6781 215.34 98.39 214.628 98.39 213.75C98.39 212.872 97.6781 212.16 96.8 212.16C95.9219 212.16 95.21 212.872 95.21 213.75C95.21 214.628 95.9219 215.34 96.8 215.34Z" fill="white"/>
<path d="M112.98 238.38C113.858 238.38 114.57 237.668 114.57 236.79C114.57 235.912 113.858 235.2 112.98 235.2C112.102 235.2 111.39 235.912 111.39 236.79C111.39 237.668 112.102 238.38 112.98 238.38Z" fill="white"/>
<path d="M53.13 210.77C54.8421 210.77 56.23 209.382 56.23 207.67C56.23 205.958 54.8421 204.57 53.13 204.57C51.4179 204.57 50.03 205.958 50.03 207.67C50.03 209.382 51.4179 210.77 53.13 210.77Z" fill="white"/>
<path d="M182.68 225.82C184.392 225.82 185.78 224.432 185.78 222.72C185.78 221.008 184.392 219.62 182.68 219.62C180.968 219.62 179.58 221.008 179.58 222.72C179.58 224.432 180.968 225.82 182.68 225.82Z" fill="white"/>
<path d="M119.01 179.44C120.722 179.44 122.11 178.052 122.11 176.34C122.11 174.628 120.722 173.24 119.01 173.24C117.298 173.24 115.91 174.628 115.91 176.34C115.91 178.052 117.298 179.44 119.01 179.44Z" fill="white"/>
<path d="M188.92 266.26L192.11 271.83L193.34 265.54L198.9 262.35L193.35 261.27L236.47 199.19L191.77 259.66L189.42 255.56L188.2 261.85L182.63 265.04L188.92 266.26Z" fill="white"/>
<path d="M213.49 249.81L212.33 255.21L207.48 257.87L212.89 259.03L215.54 263.88L216.7 258.47L221.56 255.82L216.86 254.81L235.88 227.47L215.35 253.21L213.49 249.81Z" fill="white"/>
<path d="M245.45 134.64L246.42 132.05L249.01 131.08L246.42 130.12L245.45 127.53L244.49 130.12L241.9 131.08L244.49 132.05L245.45 134.64Z" fill="white"/>
<path d="M46.58 126.53L49.62 118.38L57.77 115.35L49.62 112.32L46.58 104.17L43.55 112.32L35.4 115.35L43.55 118.38L46.58 126.53Z" fill="white"/>
<path d="M18.03 110.66L17.28 112.68L15.26 113.43L17.28 114.18L18.03 116.19L18.78 114.18L20.79 113.43L18.78 112.68L18.03 110.66Z" fill="white"/>
<path d="M232.52 45.74L209.95 70.52L208.84 68.14L207.7 72.15L203.93 73.91L207.93 75.04L209.69 78.82L210.83 74.81L214.61 73.06L211.44 72.16L232.52 45.74Z" fill="white"/>
<path d="M125.75 346.16C123.75 340.88 121.66 335.42 120.2 330.87C118.74 335.6 116.92 340.52 114.74 346.16L101.02 381.63C100.56 382.72 99.56 383.09 98.29 382.63C97.2 382.27 96.74 381.36 97.2 380.17L117.66 327.87C118.12 326.78 119.02 326.23 120.21 326.23C121.4 326.23 122.3 326.78 122.76 327.87L146.33 388.83C146.79 390.01 146.24 390.92 145.15 391.29C143.88 391.75 142.87 391.38 142.42 390.29L125.77 346.16H125.75Z" fill="#2E1E57"/>
<path d="M195.27 357.48V386.46C195.27 390.01 193.9 391.28 191.72 391.28C190.26 391.28 189.45 390.73 188.26 388.82L156.87 336.32C156.05 334.95 155.05 332.95 154.32 331.13V357.32C154.32 358.5 153.32 358.96 152.23 358.96C151.23 358.96 150.23 358.5 150.23 357.32V331.22C150.23 327.67 151.59 326.4 153.78 326.4C155.24 326.4 156.06 326.95 157.24 328.86L188.63 381.36C189.45 382.72 190.45 384.73 191.18 386.55V357.47C191.18 356.29 192.18 355.83 193.18 355.83C194.27 355.83 195.27 356.28 195.27 357.47V357.48Z" fill="#2E1E57"/>
<path d="M233.08 346.16C231.08 340.88 228.99 335.42 227.53 330.87C226.07 335.6 224.25 340.52 222.07 346.16L204.96 390.29C204.5 391.38 203.5 391.75 202.23 391.29C201.14 390.93 200.68 390.02 201.14 388.83L224.98 327.87C225.44 326.78 226.34 326.23 227.53 326.23C228.72 326.23 229.62 326.78 230.08 327.87L247.82 373.24C248.28 374.42 247.73 375.33 246.64 375.7C245.37 376.16 244.36 375.79 243.91 374.7L233.09 346.17L233.08 346.16Z" fill="#2E1E57"/>
<path d="M85.72 343.77C84.72 343.77 83.72 344.22 83.72 345.41V355.35H46.87V343.41C46.99 338.85 48.16 324.1 58.12 323.6C59.28 323.54 60.17 322.56 60.11 321.4C60.05 320.24 59.05 319.34 57.91 319.41C43.75 320.12 42.73 339.2 42.69 343.87V389.84C42.69 391.02 43.69 391.48 44.69 391.48C45.87 391.48 46.87 391.02 46.87 389.84V359.09H83.72V389.84C83.72 391.02 84.72 391.48 85.72 391.48C86.9 391.48 87.9 391.02 87.9 389.84V345.42C87.9 344.24 86.9 343.78 85.72 343.78V343.77Z" fill="#2E1E57"/>
<path d="M227.49 376.46C230.71 376.46 233.32 373.85 233.32 370.63C233.32 367.41 230.71 364.8 227.49 364.8C224.27 364.8 221.66 367.41 221.66 370.63C221.66 373.85 224.27 376.46 227.49 376.46Z" fill="#5C3CAB"/>
<path d="M87.55 408.96V409.25C87.55 410.81 86.75 411.82 85.35 412.25L87.63 416.71C87.79 417.04 87.68 417.3 87.37 417.45C87.06 417.61 86.75 417.55 86.58 417.24L84.19 412.45C83.96 412.48 83.73 412.5 83.49 412.5H81V417.04C81 417.38 80.72 417.53 80.39 417.53C80.06 417.53 79.8 417.38 79.8 417.04V406.9C79.8 406.08 80.08 405.82 80.9 405.82H83.69C86.08 405.82 87.56 406.84 87.56 408.97L87.55 408.96ZM83.45 411.45C85.47 411.45 86.35 410.68 86.35 409.22V409.01C86.35 407.57 85.46 406.86 83.6 406.86H80.99V411.45H83.45Z" fill="#664599"/>
<path d="M99.77 411.6V417.07C99.77 417.4 99.49 417.53 99.21 417.53C98.93 417.53 98.65 417.4 98.65 417.07V416.27H98.63C98.47 416.61 98.12 416.96 97.7 417.19C97.24 417.44 96.65 417.6 95.91 417.6C94.11 417.6 92.98 416.67 92.98 415.08V414.92C92.98 413.53 93.88 412.46 96.11 412.46H98.58V411.85C98.58 410.47 97.94 409.82 96.5 409.82C95.66 409.82 94.89 410.08 94.21 410.53C93.95 410.69 93.67 410.6 93.52 410.35C93.37 410.12 93.39 409.83 93.65 409.64C94.34 409.17 95.4 408.79 96.53 408.79C98.53 408.79 99.76 409.87 99.76 411.61L99.77 411.6ZM94.15 414.94V415.04C94.15 415.99 94.81 416.58 96 416.58C96.64 416.58 97.15 416.48 97.59 416.25C98.2 415.92 98.61 415.38 98.61 414.63V413.4H96.15C94.69 413.4 94.15 414.06 94.15 414.94Z" fill="#664599"/>
<path d="M106.97 405.83V410.19C107.45 409.32 108.53 408.78 109.66 408.78C111.92 408.78 113.08 410.17 113.08 412.84V413.53C113.08 416.25 111.7 417.59 109.56 417.59C108.43 417.59 107.41 417.11 106.95 416.34H106.92V417.04C106.92 417.37 106.64 417.52 106.36 417.52C106.06 417.52 105.79 417.37 105.79 417.04V405.81C105.79 405.47 106.08 405.32 106.38 405.32C106.69 405.32 106.97 405.47 106.97 405.81V405.83ZM106.95 412.29V414.55C106.95 415.6 107.98 416.57 109.49 416.57C111 416.57 111.92 415.62 111.92 413.46V412.92C111.92 410.82 111.15 409.82 109.48 409.82C108.19 409.82 106.96 410.77 106.96 412.29H106.95Z" fill="#664599"/>
<path d="M119.95 405.83V410.19C120.43 409.32 121.51 408.78 122.64 408.78C124.9 408.78 126.06 410.17 126.06 412.84V413.53C126.06 416.25 124.68 417.59 122.54 417.59C121.41 417.59 120.39 417.11 119.93 416.34H119.9V417.04C119.9 417.37 119.62 417.52 119.34 417.52C119.04 417.52 118.77 417.37 118.77 417.04V405.81C118.77 405.47 119.06 405.32 119.36 405.32C119.67 405.32 119.95 405.47 119.95 405.81V405.83ZM119.93 412.29V414.55C119.93 415.6 120.96 416.57 122.47 416.57C123.98 416.57 124.9 415.62 124.9 413.46V412.92C124.9 410.82 124.13 409.82 122.46 409.82C121.17 409.82 119.94 410.77 119.94 412.29H119.93Z" fill="#664599"/>
<path d="M133.24 406.63C133.24 407.09 132.86 407.47 132.37 407.47C131.88 407.47 131.5 407.09 131.5 406.63C131.5 406.17 131.88 405.78 132.37 405.78C132.86 405.78 133.24 406.16 133.24 406.63ZM132.96 409.38V417.03C132.96 417.37 132.68 417.52 132.37 417.52C132.08 417.52 131.78 417.37 131.78 417.03V409.38C131.78 409.04 132.07 408.89 132.37 408.89C132.68 408.89 132.96 409.04 132.96 409.38Z" fill="#664599"/>
<path d="M140.85 407.11V408.96H142.93C143.19 408.96 143.32 409.17 143.32 409.44C143.32 409.72 143.19 409.93 142.93 409.93H140.85V414.95C140.85 416.21 141.15 416.59 142.05 416.59C142.36 416.59 142.64 416.54 142.9 416.43C143.15 416.35 143.38 416.43 143.49 416.72C143.59 417 143.49 417.24 143.23 417.38C142.92 417.53 142.46 417.61 141.98 417.61C140.41 417.61 139.67 416.94 139.67 415.05V409.94H138.52C138.24 409.94 138.11 409.73 138.11 409.45C138.11 409.19 138.24 408.97 138.52 408.97H139.67V407.12C139.67 406.78 139.95 406.63 140.24 406.63C140.55 406.63 140.85 406.78 140.85 407.12V407.11Z" fill="#664599"/>
<path d="M161.68 409.57C161.84 409.67 161.88 409.86 161.78 410.03C161.68 410.19 161.52 410.26 161.34 410.16C160.72 409.78 159.96 409.54 158.95 409.54C157.41 409.54 156.67 410.2 156.67 411.06V411.11C156.67 411.99 157.26 412.42 159.11 412.77C161.44 413.2 162.16 413.74 162.16 415.19V415.32C162.16 416.61 160.96 417.6 158.98 417.6C157.73 417.6 156.59 417.17 155.96 416.73C155.78 416.6 155.76 416.42 155.86 416.25C155.97 416.07 156.15 416.02 156.35 416.15C156.96 416.56 157.92 416.94 158.99 416.94C160.55 416.94 161.45 416.23 161.45 415.28V415.23C161.45 414.16 161.07 413.82 158.78 413.39C156.93 413.05 155.96 412.42 155.96 411.16V411.03C155.96 409.85 156.93 408.87 159.01 408.87C160.12 408.87 161.04 409.17 161.68 409.56V409.57Z" fill="#2E1E57"/>
<path d="M168.92 406.68C168.92 407.04 168.64 407.32 168.26 407.32C167.88 407.32 167.6 407.04 167.6 406.68C167.6 406.32 167.88 406.04 168.26 406.04C168.64 406.04 168.92 406.32 168.92 406.68ZM168.64 409.3V417.22C168.64 417.43 168.46 417.51 168.26 417.51C168.08 417.51 167.9 417.43 167.9 417.22V409.3C167.9 409.09 168.08 409.01 168.26 409.01C168.46 409.01 168.64 409.09 168.64 409.3Z" fill="#2E1E57"/>
<path d="M176.24 407.04V409.06H178.5C178.66 409.06 178.75 409.19 178.75 409.35C178.75 409.53 178.67 409.66 178.5 409.66H176.24V415.02C176.24 416.54 176.57 416.95 177.65 416.95C177.98 416.95 178.29 416.88 178.53 416.77C178.73 416.69 178.87 416.75 178.96 416.93C179.04 417.13 178.98 417.27 178.78 417.37C178.5 417.5 178.09 417.58 177.63 417.58C176.24 417.58 175.5 417.07 175.5 415.19V409.65H174.19C174.03 409.65 173.94 409.52 173.94 409.34C173.94 409.18 174.02 409.05 174.19 409.05H175.5V407.03C175.5 406.82 175.68 406.74 175.86 406.74C176.06 406.74 176.24 406.82 176.24 407.03V407.04Z" fill="#2E1E57"/>
<path d="M185.71 407.04V409.06H187.97C188.13 409.06 188.22 409.19 188.22 409.35C188.22 409.53 188.14 409.66 187.97 409.66H185.71V415.02C185.71 416.54 186.04 416.95 187.12 416.95C187.45 416.95 187.76 416.88 188 416.77C188.2 416.69 188.34 416.75 188.43 416.93C188.51 417.13 188.45 417.27 188.25 417.37C187.97 417.5 187.56 417.58 187.1 417.58C185.71 417.58 184.97 417.07 184.97 415.19V409.65H183.66C183.5 409.65 183.41 409.52 183.41 409.34C183.41 409.18 183.49 409.05 183.66 409.05H184.97V407.03C184.97 406.82 185.15 406.74 185.33 406.74C185.53 406.74 185.71 406.82 185.71 407.03V407.04Z" fill="#2E1E57"/>
<path d="M200.51 412.75V412.78C200.51 413.22 200.3 413.45 199.79 413.45H194.27V413.57C194.27 415.9 195.38 416.95 197.17 416.95C198.23 416.95 199.07 416.69 199.73 416.24C199.93 416.11 200.11 416.16 200.21 416.32C200.31 416.48 200.29 416.66 200.11 416.8C199.41 417.27 198.39 417.6 197.13 417.6C194.95 417.6 193.54 416.27 193.54 413.65V412.83C193.54 410.21 194.95 408.88 197.05 408.88C199.15 408.88 200.52 410.31 200.52 412.75H200.51ZM194.27 412.75V412.83H199.78V412.71C199.78 410.63 198.71 409.53 197.04 409.53C195.37 409.53 194.27 410.66 194.27 412.74V412.75Z" fill="#2E1E57"/>
<path d="M210.65 409.03C210.83 409.1 210.9 409.26 210.83 409.47C210.76 409.67 210.62 409.76 210.42 409.72C210.19 409.65 209.9 409.61 209.58 409.61C207.96 409.61 207.12 411 207.12 412.87V417.23C207.12 417.44 206.94 417.52 206.74 417.52C206.56 417.52 206.38 417.44 206.38 417.23V409.31C206.38 409.1 206.56 409.02 206.74 409.02C206.92 409.02 207.1 409.1 207.1 409.31V410.75H207.12C207.35 409.93 208.2 408.88 209.64 408.88C210.02 408.88 210.34 408.93 210.64 409.03H210.65Z" fill="#2E1E57"/>
</g>
<defs>
<linearGradient id="paint0_linear_1_73" x1="221.64" y1="12.05" x2="109.7" y2="207.55" gradientUnits="userSpaceOnUse">
<stop stop-color="#49A8DF"/>
<stop offset="0.49" stop-color="#6E63AA"/>
<stop offset="1" stop-color="#170B28"/>
</linearGradient>
<linearGradient id="paint1_linear_1_73" x1="176.05" y1="110.85" x2="129.37" y2="184.92" gradientUnits="userSpaceOnUse">
<stop stop-color="#6530B0"/>
<stop offset="0.42" stop-color="#4E268A"/>
<stop offset="0.7" stop-color="#33195B"/>
<stop offset="1" stop-color="#0F071A"/>
</linearGradient>
<linearGradient id="paint2_linear_1_73" x1="146.11" y1="143.88" x2="49.45" y2="318.27" gradientUnits="userSpaceOnUse">
<stop stop-color="#664599"/>
<stop offset="0.42" stop-color="#4E268A"/>
<stop offset="0.7" stop-color="#33195B"/>
<stop offset="1" stop-color="#170B28"/>
</linearGradient>
<linearGradient id="paint3_linear_1_73" x1="246.91" y1="282.16" x2="171.32" y2="182.01" gradientUnits="userSpaceOnUse">
<stop/>
<stop offset="1" stop-opacity="0"/>
</linearGradient>
<linearGradient id="paint4_linear_1_73" x1="58.74" y1="4.12" x2="122.05" y2="109" gradientUnits="userSpaceOnUse">
<stop stop-color="white"/>
<stop offset="1" stop-color="white" stop-opacity="0"/>
</linearGradient>
<clipPath id="clip0_1_73">
<rect width="290.65" height="417.6" fill="white"/>
</clipPath>
</defs>
</svg>
