<svg width="25" height="23" viewBox="0 0 25 23" fill="currentColor" xmlns="http://www.w3.org/2000/svg">
<path d="M24 9.40282C24 4.21813 18.6169 0 12 0C5.38307 0 0 4.21813 0 9.40282C0 14.051 4.26957 17.9433 10.0362 18.6797C10.4265 18.7611 10.9585 18.9284 11.0934 19.2509C11.2149 19.5441 11.1722 20.0024 11.1328 20.2989C11.1328 20.2989 10.9922 21.1167 10.9619 21.2905C10.909 21.5837 10.7212 22.4362 12.0011 21.9149C13.2822 21.3936 18.9116 17.9857 21.4288 15.1881C23.1677 13.3462 24.0011 11.4782 24.0011 9.40282H24ZM7.76643 12.1754C7.76643 12.2982 7.66407 12.397 7.53698 12.397H4.16609C4.04012 12.397 3.93664 12.2982 3.93664 12.1754V12.1722V7.1189C3.93664 6.99618 4.03899 6.89735 4.16609 6.89735H5.01753C5.1435 6.89735 5.24698 6.99727 5.24698 7.1189V11.1329H7.5381C7.66407 11.1329 7.76755 11.2328 7.76755 11.3544V12.1765L7.76643 12.1754ZM9.79548 12.1754C9.79548 12.2971 9.69313 12.397 9.56603 12.397H8.71459C8.58862 12.397 8.48514 12.2982 8.48514 12.1754V7.1189C8.48514 6.99727 8.5875 6.89735 8.71459 6.89735H9.56603C9.69313 6.89735 9.79548 6.99618 9.79548 7.1189V12.1754ZM15.5891 12.1754C15.5891 12.2971 15.4867 12.397 15.3596 12.397H14.5138C14.4936 12.397 14.4733 12.3937 14.4542 12.3894C14.4542 12.3894 14.452 12.3894 14.4508 12.3894C14.4452 12.3883 14.4407 12.3861 14.4351 12.385C14.4328 12.385 14.4306 12.3829 14.4283 12.3829C14.425 12.3818 14.4205 12.3796 14.4171 12.3785C14.4137 12.3764 14.4092 12.3753 14.4058 12.3731C14.4036 12.372 14.4013 12.3709 14.3991 12.3698C14.3946 12.3677 14.389 12.3644 14.3845 12.3612C14.3845 12.3612 14.3822 12.3601 14.3822 12.359C14.3597 12.3438 14.3395 12.3253 14.3226 12.3036L11.9235 9.17475V12.1776C11.9235 12.2992 11.8212 12.3992 11.6941 12.3992H10.8426C10.7167 12.3992 10.6132 12.3003 10.6132 12.1776V7.12107C10.6132 6.99944 10.7155 6.89952 10.8426 6.89952H11.6884C11.6884 6.89952 11.6941 6.89952 11.6963 6.89952C11.7008 6.89952 11.7042 6.89952 11.7087 6.89952C11.7132 6.89952 11.7166 6.89952 11.7211 6.90061C11.7244 6.90061 11.7278 6.90061 11.7312 6.9017C11.7357 6.9017 11.7402 6.90387 11.7447 6.90495C11.7469 6.90495 11.7503 6.90604 11.7526 6.90713C11.7571 6.90821 11.7616 6.91038 11.7661 6.91147C11.7683 6.91147 11.7705 6.91364 11.7739 6.91364C11.7784 6.91581 11.7829 6.9169 11.7874 6.91907C11.7897 6.92016 11.7919 6.92125 11.7942 6.92233C11.7987 6.9245 11.8032 6.92668 11.8065 6.92885C11.8088 6.92993 11.811 6.93102 11.8133 6.93319C11.8178 6.93536 11.8212 6.93862 11.8257 6.94079C11.8279 6.94188 11.8302 6.94405 11.8324 6.94514C11.8369 6.9484 11.8403 6.95165 11.8448 6.95491C11.8459 6.956 11.8482 6.95708 11.8493 6.95817C11.8538 6.96251 11.8583 6.96686 11.8628 6.97229C11.8628 6.97229 11.8628 6.97229 11.8639 6.97337C11.8707 6.98098 11.8763 6.98858 11.8819 6.99618L14.2776 10.1207V7.11782C14.2776 6.99618 14.38 6.89627 14.5071 6.89627H15.3585C15.4845 6.89627 15.588 6.99509 15.588 7.11782V12.1744L15.5891 12.1754ZM20.2366 7.93994C20.2366 8.06266 20.1342 8.16149 20.0071 8.16149H17.716V9.0151H20.0071C20.1331 9.0151 20.2366 9.11502 20.2366 9.23665V10.0588C20.2366 10.1815 20.1342 10.2803 20.0071 10.2803H17.716V11.1339H20.0071C20.1331 11.1339 20.2366 11.2339 20.2366 11.3555V12.1776C20.2366 12.3003 20.1342 12.3992 20.0071 12.3992H16.6362C16.5103 12.3992 16.4068 12.3003 16.4068 12.1776V12.1744V7.1265V7.12107C16.4068 6.99835 16.5091 6.89952 16.6362 6.89952H20.0071C20.1331 6.89952 20.2366 6.99944 20.2366 7.12107V7.9432V7.93994Z" fill="currentColor"/>
</svg>
