<svg width="318" height="371" viewBox="0 0 318 371" fill="none" xmlns="http://www.w3.org/2000/svg">
<path d="M106.6 31.03C106.6 31.03 284.36 81.81 304.81 155.45C325.26 229.09 328.52 288.62 259.39 306.93C190.26 325.24 135.39 398.83 98.2795 300.15C61.1695 201.46 -25.5505 77.8 106.6 31.03Z" fill="#594650"/>
<path d="M198.27 93.09C221.57 53.63 201.75 12.5 148.08 1.39C94.4095 -9.72 9.25953 47.28 1.31953 127.78C-6.62047 208.28 21.6795 316.64 75.2295 333.7C128.78 350.76 101.65 295.2 133.33 291.01C165.01 286.82 223.38 341.52 262.14 280.97C300.9 220.42 255.7 176.39 235.69 154.8C215.68 133.21 186.35 113.29 198.28 93.09H198.27Z" fill="#594650"/>
<path d="M217.06 355.91C256.45 341.44 316.48 311.9 279.99 243.86C255.62 198.42 268.42 215.4 255.5 158.58C242.59 101.75 204.68 34.37 158.32 103.65C111.96 172.93 74.2195 151.67 40.4095 167.63C6.59955 183.58 18.7895 228.01 44.7195 264.48C70.6495 300.94 159.15 377.19 217.06 355.92V355.91Z" fill="#342E45"/>
<path d="M37.6795 169.78C42.3295 215.98 -2.84046 407.73 128.88 363.86C260.6 319.99 292.23 267.42 283.17 205.17C274.11 142.91 256.03 145.06 241.05 102.27C226.07 59.49 187.18 61.81 139.85 104.46C92.5195 147.11 30.8195 101.55 37.6795 169.78Z" fill="#42275D"/>
<path d="M292.42 216.48C271.65 293.99 191.98 339.98 114.48 319.22C36.9696 298.44 -9.03044 218.78 11.7396 141.27C21.7096 104.05 46.0596 72.32 79.4296 53.05C112.8 33.78 152.46 28.56 189.68 38.54C267.19 59.31 313.18 138.98 292.42 216.48Z" fill="url(#paint0_linear_3_58)"/>
<path d="M297.37 178.87C297.37 217.4 282.06 254.36 254.82 281.61C227.57 308.86 190.62 324.16 152.08 324.16C113.54 324.16 76.5896 308.85 49.3396 281.61C22.0996 254.36 6.78955 217.41 6.78955 178.87C6.78955 140.33 33.7295 150.53 69.4595 136.11C100.06 123.76 132.92 167.32 171.45 167.32C209.98 167.32 225.01 153.83 248.48 144.31C281.02 131.11 297.37 140.34 297.37 178.87Z" fill="url(#paint1_linear_3_58)"/>
<path d="M220.05 153.35C216.4 148.29 212.26 143.7 207.34 139.85C203.59 136.92 199.63 134.36 194.84 133.5C193.86 133.32 193.9 132.74 194.08 132.03C195.51 126.28 195.35 120.5 194.37 114.7C192.93 106.24 189.94 98.32 186.05 90.72C183.22 85.19 180.07 79.86 175.84 75.23C173.86 73.07 172.3 72.23 169.27 75.34C168.33 76.3 167.61 77.43 166.92 78.57C165.37 81.16 164.2 83.93 163.09 86.72C162.243 88.86 162.66 90.6633 164.34 92.13C164.45 92.22 164.55 92.32 164.66 92.42C175.73 102.49 182.46 115.02 185.71 129.53C185.88 130.29 186.13 131.07 185.97 131.97C185.51 131.58 185.51 131.13 185.41 130.72C184.14 125.41 182.43 120.26 180.07 115.33C175.2 105.15 168.37 96.78 157.93 91.89C152.26 89.24 146.31 87.86 140 88.8C136.09 89.38 134.83 90.92 134.98 94.86C134.98 95 135.01 95.15 135.01 95.29C135.16 99.43 136.18 103.4 137.39 107.33C140.3 116.77 144.91 125.14 152.47 131.71C155.28 134.15 158.1 136.58 161.14 138.74C162 139.35 162.27 139.69 161.09 140.37C157.25 142.61 154.26 145.69 152.5 149.85C152.04 150.95 151.52 152.02 150.95 153.07C150.14 154.59 148.98 155.7 147.24 156.21C145.73 156.65 144.28 157.29 142.82 157.87C129.52 163.15 116.98 169.74 106.38 179.56C99.0895 186.31 93.4695 194.22 89.9895 203.57C86.4795 213.01 85.6196 222.76 86.6196 232.73C86.9796 236.34 87.4796 235.67 84.2296 237.25C81.8296 238.42 80.4495 240.35 80.2395 242.95C79.8495 247.75 81.1596 252.01 84.6096 255.5C86.2896 257.19 88.3695 258.26 90.4595 259.32C91.5495 259.87 91.9196 260.63 91.4796 261.76C91.1096 262.69 90.6996 263.6 90.3196 264.53C88.8296 268.15 90.9295 271.77 94.7795 272.23C100.66 272.93 106.58 273.07 112.48 273.29C123.59 273.71 134.71 273.74 145.82 273.57C151.2 273.49 156.6 273.42 161.96 272.77C163.27 272.61 164.04 272.01 164.48 270.81C165.12 269.07 164.7 267.63 163.4 266.39C161.32 264.42 158.72 263.28 156.22 262C154.44 261.09 154.4 261.06 155.3 259.21C156.55 256.63 158.05 254.19 159.62 251.79C161.35 249.14 161.56 249.11 163.9 251.37C166.9 254.27 168.97 257.8 170.79 261.5C172.47 264.9 174.95 267.54 178.24 269.39C182.9 272.01 187.83 272.66 193.04 271.36C194.24 271.06 194.64 270.39 194.6 269.2C194.54 267.6 193.77 266.52 192.43 265.75C190.31 264.53 189.65 262.61 189.86 260.28C190.03 258.36 190.51 256.52 191.17 254.72C192.56 250.95 194.36 247.37 196.38 243.9C200.35 237.04 204.3 230.17 207.17 222.76C209.72 216.15 211.86 209.45 212.16 202.28C212.39 196.91 211.81 191.61 210.82 186.35C210.6 185.15 210.91 184.43 211.84 183.66C215.5 180.62 218.69 177.16 221 172.96C224.68 166.23 224.64 159.7 220.06 153.33L220.05 153.35ZM191.32 161.17C188.71 161.2 186.56 159.09 186.55 156.47C186.54 153.85 188.67 151.69 191.25 151.72C193.78 151.74 195.96 153.86 196 156.33C196.04 158.87 193.85 161.14 191.32 161.17Z" fill="white"/>
<path d="M297.37 178.87C297.37 217.4 282.06 254.36 254.82 281.61C227.57 308.86 190.62 324.16 152.08 324.16C113.54 324.16 76.5896 308.85 49.3396 281.61C22.0996 254.36 6.78955 217.41 6.78955 178.87C6.78955 140.33 22.0996 103.38 49.3396 76.13C76.5896 48.88 37.9896 176.18 111.51 172.14C176.75 168.56 156.97 200.09 184.22 227.34C211.47 254.59 297.37 140.34 297.37 178.87Z" fill="url(#paint2_linear_3_58)"/>
<path opacity="0.8" d="M96.6196 124.83C101.518 124.83 105.49 120.859 105.49 115.96C105.49 111.061 101.518 107.09 96.6196 107.09C91.7208 107.09 87.7496 111.061 87.7496 115.96C87.7496 120.859 91.7208 124.83 96.6196 124.83Z" fill="white"/>
<path opacity="0.8" d="M253.83 108.52C256.276 108.52 258.26 106.537 258.26 104.09C258.26 101.643 256.276 99.66 253.83 99.66C251.383 99.66 249.4 101.643 249.4 104.09C249.4 106.537 251.383 108.52 253.83 108.52Z" fill="white"/>
<path opacity="0.8" d="M109.68 56.54L108.82 56.69L108.67 55.83C108.59 55.36 108.14 55.05 107.67 55.13H107.63C107.16 55.22 106.85 55.67 106.93 56.14L107.08 57L106.22 57.15C105.75 57.23 105.44 57.68 105.52 58.15V58.19C105.61 58.66 106.06 58.97 106.53 58.89L107.39 58.74L107.54 59.6C107.62 60.07 108.07 60.38 108.54 60.3H108.58C109.05 60.21 109.36 59.76 109.28 59.29L109.13 58.43L109.99 58.28C110.46 58.2 110.77 57.75 110.69 57.28V57.24C110.6 56.77 110.15 56.46 109.68 56.54Z" fill="white"/>
<path opacity="0.8" d="M279.89 196.02C281.116 196.02 282.11 195.026 282.11 193.8C282.11 192.574 281.116 191.58 279.89 191.58C278.663 191.58 277.67 192.574 277.67 193.8C277.67 195.026 278.663 196.02 279.89 196.02Z" fill="white"/>
<path opacity="0.3" d="M152.08 303.15C219.458 303.15 274.08 248.529 274.08 181.15C274.08 113.771 219.458 59.15 152.08 59.15C84.7009 59.15 30.0796 113.771 30.0796 181.15C30.0796 248.529 84.7009 303.15 152.08 303.15Z" fill="url(#paint3_linear_3_58)"/>
<path opacity="0.32" d="M152.08 303.15C219.458 303.15 274.08 248.529 274.08 181.15C274.08 113.771 219.458 59.15 152.08 59.15C84.7009 59.15 30.0796 113.771 30.0796 181.15C30.0796 248.529 84.7009 303.15 152.08 303.15Z" fill="url(#paint4_linear_3_58)"/>
<path opacity="0.8" d="M251.83 243.66C254.276 243.66 256.26 241.677 256.26 239.23C256.26 236.783 254.276 234.8 251.83 234.8C249.383 234.8 247.4 236.783 247.4 239.23C247.4 241.677 249.383 243.66 251.83 243.66Z" fill="white"/>
<path d="M76.3396 188.38C77.2177 188.38 77.9296 187.668 77.9296 186.79C77.9296 185.912 77.2177 185.2 76.3396 185.2C75.4614 185.2 74.7496 185.912 74.7496 186.79C74.7496 187.668 75.4614 188.38 76.3396 188.38Z" fill="white"/>
<path d="M143.16 224.78C144.038 224.78 144.75 224.068 144.75 223.19C144.75 222.312 144.038 221.6 143.16 221.6C142.281 221.6 141.57 222.312 141.57 223.19C141.57 224.068 142.281 224.78 143.16 224.78Z" fill="white"/>
<path d="M125.95 255.01C126.828 255.01 127.54 254.298 127.54 253.42C127.54 252.542 126.828 251.83 125.95 251.83C125.071 251.83 124.36 252.542 124.36 253.42C124.36 254.298 125.071 255.01 125.95 255.01Z" fill="white"/>
<path d="M92.5196 230.26C93.3977 230.26 94.1096 229.548 94.1096 228.67C94.1096 227.792 93.3977 227.08 92.5196 227.08C91.6414 227.08 90.9296 227.792 90.9296 228.67C90.9296 229.548 91.6414 230.26 92.5196 230.26Z" fill="white"/>
<path d="M47.5796 257.2C48.4577 257.2 49.1696 256.488 49.1696 255.61C49.1696 254.732 48.4577 254.02 47.5796 254.02C46.7014 254.02 45.9896 254.732 45.9896 255.61C45.9896 256.488 46.7014 257.2 47.5796 257.2Z" fill="white"/>
<path d="M75.7195 278.89C77.3819 278.89 78.7295 277.542 78.7295 275.88C78.7295 274.218 77.3819 272.87 75.7195 272.87C74.0572 272.87 72.7095 274.218 72.7095 275.88C72.7095 277.542 74.0572 278.89 75.7195 278.89Z" fill="white"/>
<path d="M62.1896 219.33C63.8519 219.33 65.1996 217.982 65.1996 216.32C65.1996 214.658 63.8519 213.31 62.1896 213.31C60.5272 213.31 59.1796 214.658 59.1796 216.32C59.1796 217.982 60.5272 219.33 62.1896 219.33Z" fill="white"/>
<path d="M172.9 299.38C174.562 299.38 175.91 298.032 175.91 296.37C175.91 294.708 174.562 293.36 172.9 293.36C171.237 293.36 169.89 294.708 169.89 296.37C169.89 298.032 171.237 299.38 172.9 299.38Z" fill="white"/>
<path d="M98.2896 270.87C99.3168 270.87 100.15 270.037 100.15 269.01C100.15 267.983 99.3168 267.15 98.2896 267.15C97.2623 267.15 96.4296 267.983 96.4296 269.01C96.4296 270.037 97.2623 270.87 98.2896 270.87Z" fill="white"/>
<path d="M73.7396 260.44C74.1814 260.44 74.5396 260.082 74.5396 259.64C74.5396 259.198 74.1814 258.84 73.7396 258.84C73.2977 258.84 72.9396 259.198 72.9396 259.64C72.9396 260.082 73.2977 260.44 73.7396 260.44Z" fill="white"/>
<path d="M45.7095 111.69C46.1514 111.69 46.5095 111.332 46.5095 110.89C46.5095 110.448 46.1514 110.09 45.7095 110.09C45.2677 110.09 44.9095 110.448 44.9095 110.89C44.9095 111.332 45.2677 111.69 45.7095 111.69Z" fill="white"/>
<path d="M45.3195 189.44C45.7614 189.44 46.1195 189.082 46.1195 188.64C46.1195 188.198 45.7614 187.84 45.3195 187.84C44.8777 187.84 44.5195 188.198 44.5195 188.64C44.5195 189.082 44.8777 189.44 45.3195 189.44Z" fill="white"/>
<path d="M45.6296 223.49C46.0714 223.49 46.4296 223.132 46.4296 222.69C46.4296 222.248 46.0714 221.89 45.6296 221.89C45.1878 221.89 44.8296 222.248 44.8296 222.69C44.8296 223.132 45.1878 223.49 45.6296 223.49Z" fill="white"/>
<path d="M114.21 294.81C114.651 294.81 115.01 294.452 115.01 294.01C115.01 293.568 114.651 293.21 114.21 293.21C113.768 293.21 113.41 293.568 113.41 294.01C113.41 294.452 113.768 294.81 114.21 294.81Z" fill="white"/>
<path d="M99.3195 224.69C99.7614 224.69 100.12 224.332 100.12 223.89C100.12 223.448 99.7614 223.09 99.3195 223.09C98.8777 223.09 98.5195 223.448 98.5195 223.89C98.5195 224.332 98.8777 224.69 99.3195 224.69Z" fill="white"/>
<path d="M93.1995 189.57C93.6414 189.57 93.9995 189.212 93.9995 188.77C93.9995 188.328 93.6414 187.97 93.1995 187.97C92.7577 187.97 92.3995 188.328 92.3995 188.77C92.3995 189.212 92.7577 189.57 93.1995 189.57Z" fill="white"/>
<path d="M74.4996 228.1C74.9414 228.1 75.2996 227.742 75.2996 227.3C75.2996 226.858 74.9414 226.5 74.4996 226.5C74.0578 226.5 73.6996 226.858 73.6996 227.3C73.6996 227.742 74.0578 228.1 74.4996 228.1Z" fill="white"/>
<path d="M127.45 240.89C127.891 240.89 128.25 240.532 128.25 240.09C128.25 239.648 127.891 239.29 127.45 239.29C127.008 239.29 126.65 239.648 126.65 240.09C126.65 240.532 127.008 240.89 127.45 240.89Z" fill="white"/>
<path d="M95.3496 203.99C95.7914 203.99 96.1496 203.632 96.1496 203.19C96.1496 202.748 95.7914 202.39 95.3496 202.39C94.9077 202.39 94.5496 202.748 94.5496 203.19C94.5496 203.632 94.9077 203.99 95.3496 203.99Z" fill="white"/>
<path d="M122.51 221.46C122.951 221.46 123.31 221.102 123.31 220.66C123.31 220.218 122.951 219.86 122.51 219.86C122.068 219.86 121.71 220.218 121.71 220.66C121.71 221.102 122.068 221.46 122.51 221.46Z" fill="white"/>
<path d="M106.6 206.64C107.041 206.64 107.4 206.282 107.4 205.84C107.4 205.398 107.041 205.04 106.6 205.04C106.158 205.04 105.8 205.398 105.8 205.84C105.8 206.282 106.158 206.64 106.6 206.64Z" fill="white"/>
<path d="M139.42 238.88C139.861 238.88 140.22 238.522 140.22 238.08C140.22 237.638 139.861 237.28 139.42 237.28C138.978 237.28 138.62 237.638 138.62 238.08C138.62 238.522 138.978 238.88 139.42 238.88Z" fill="white"/>
<path d="M149.1 260.31C149.978 260.31 150.69 259.598 150.69 258.72C150.69 257.842 149.978 257.13 149.1 257.13C148.221 257.13 147.51 257.842 147.51 258.72C147.51 259.598 148.221 260.31 149.1 260.31Z" fill="white"/>
<path d="M103.55 248.92C104.428 248.92 105.14 248.208 105.14 247.33C105.14 246.452 104.428 245.74 103.55 245.74C102.671 245.74 101.96 246.452 101.96 247.33C101.96 248.208 102.671 248.92 103.55 248.92Z" fill="white"/>
<path d="M119.74 271.96C120.618 271.96 121.33 271.248 121.33 270.37C121.33 269.492 120.618 268.78 119.74 268.78C118.861 268.78 118.15 269.492 118.15 270.37C118.15 271.248 118.861 271.96 119.74 271.96Z" fill="white"/>
<path d="M59.8895 244.35C61.6016 244.35 62.9896 242.962 62.9896 241.25C62.9896 239.538 61.6016 238.15 59.8895 238.15C58.1775 238.15 56.7896 239.538 56.7896 241.25C56.7896 242.962 58.1775 244.35 59.8895 244.35Z" fill="white"/>
<path d="M189.43 259.4C191.142 259.4 192.53 258.012 192.53 256.3C192.53 254.588 191.142 253.2 189.43 253.2C187.717 253.2 186.33 254.588 186.33 256.3C186.33 258.012 187.717 259.4 189.43 259.4Z" fill="white"/>
<path d="M125.76 213.02C127.472 213.02 128.86 211.632 128.86 209.92C128.86 208.208 127.472 206.82 125.76 206.82C124.047 206.82 122.66 208.208 122.66 209.92C122.66 211.632 124.047 213.02 125.76 213.02Z" fill="white"/>
<path d="M195.68 299.85L198.86 305.41L200.09 299.12L205.66 295.93L200.1 294.85L243.23 232.77L198.52 293.24L196.18 289.14L194.95 295.44L189.39 298.62L195.68 299.85Z" fill="white"/>
<path d="M220.249 283.39L219.089 288.8L214.24 291.45L219.639 292.61L222.299 297.46L223.46 292.05L228.309 289.4L223.609 288.39L242.639 261.05L222.109 286.79L220.249 283.39Z" fill="white"/>
<path d="M252.21 168.22L253.17 165.63L255.76 164.66L253.17 163.7L252.21 161.11L251.24 163.7L248.65 164.66L251.24 165.63L252.21 168.22Z" fill="white"/>
<path d="M53.3395 160.11L56.3695 151.96L64.5195 148.93L56.3695 145.9L53.3395 137.75L50.3095 145.9L42.1595 148.93L50.3095 151.96L53.3395 160.11Z" fill="white"/>
<path d="M24.7796 144.24L24.0296 146.26L22.0096 147.01L24.0296 147.76L24.7796 149.78L25.5296 147.76L27.5496 147.01L25.5296 146.26L24.7796 144.24Z" fill="white"/>
<path d="M239.27 79.32L216.7 104.1L215.6 101.72L214.46 105.73L210.68 107.49L214.69 108.63L216.45 112.41L217.59 108.4L221.36 106.64L218.2 105.74L239.27 79.32Z" fill="white"/>
<defs>
<linearGradient id="paint0_linear_3_58" x1="228.39" y1="45.63" x2="116.45" y2="241.14" gradientUnits="userSpaceOnUse">
<stop stop-color="#CECECE"/>
<stop offset="0.49" stop-color="#9A98A7"/>
<stop offset="1" stop-color="#170B28"/>
</linearGradient>
<linearGradient id="paint1_linear_3_58" x1="182.8" y1="144.43" x2="136.12" y2="218.5" gradientUnits="userSpaceOnUse">
<stop stop-color="#57525E"/>
<stop offset="0.42" stop-color="#564372"/>
<stop offset="0.7" stop-color="#211B2B"/>
<stop offset="1"/>
</linearGradient>
<linearGradient id="paint2_linear_3_58" x1="152.86" y1="177.46" x2="56.2095" y2="351.85" gradientUnits="userSpaceOnUse">
<stop stop-color="#837A92"/>
<stop offset="0.42" stop-color="#6D5C87"/>
<stop offset="0.7" stop-color="#544B61"/>
<stop offset="1"/>
</linearGradient>
<linearGradient id="paint3_linear_3_58" x1="253.66" y1="315.74" x2="178.08" y2="215.59" gradientUnits="userSpaceOnUse">
<stop/>
<stop offset="1" stop-opacity="0"/>
</linearGradient>
<linearGradient id="paint4_linear_3_58" x1="65.4996" y1="37.7" x2="128.8" y2="142.58" gradientUnits="userSpaceOnUse">
<stop stop-color="white"/>
<stop offset="1" stop-color="white" stop-opacity="0"/>
</linearGradient>
</defs>
</svg>
