<svg width="1em" height="2em" viewBox="0 0 144 201" fill="currentColor" stroke="currentColor" xmlns="http://www.w3.org/2000/svg">
<path d="M139.876 80.0506C136.226 74.9906 132.086 70.4006 127.166 66.5506C123.416 63.6206 119.456 61.0606 114.666 60.2006C113.686 60.0206 113.726 59.4406 113.906 58.7306C115.336 52.9806 115.176 47.2006 114.196 41.4006C112.756 32.9406 109.766 25.0206 105.876 17.4206C103.046 11.8906 99.8965 6.56063 95.6665 1.93063C93.6865 -0.229373 92.1265 -1.06938 89.0965 2.04062C88.1565 3.00062 87.4365 4.13062 86.7465 5.27062C85.1965 7.86062 84.0265 10.6306 82.9165 13.4206C82.0698 15.5606 82.4865 17.364 84.1665 18.8306C84.2765 18.9206 84.3765 19.0206 84.4865 19.1206C95.5565 29.1906 102.286 41.7206 105.536 56.2306C105.706 56.9906 105.956 57.7706 105.796 58.6706C105.336 58.2806 105.336 57.8306 105.236 57.4206C103.966 52.1106 102.256 46.9606 99.8965 42.0306C95.0265 31.8506 88.1964 23.4806 77.7564 18.5906C72.0864 15.9406 66.1365 14.5606 59.8265 15.5006C55.9165 16.0806 54.6564 17.6206 54.8064 21.5606C54.8064 21.7006 54.8364 21.8506 54.8364 21.9906C54.9864 26.1306 56.0065 30.1006 57.2165 34.0306C60.1265 43.4706 64.7365 51.8406 72.2965 58.4106C75.1065 60.8506 77.9265 63.2806 80.9665 65.4406C81.8265 66.0506 82.0965 66.3906 80.9165 67.0706C77.0765 69.3106 74.0865 72.3906 72.3265 76.5506C71.8665 77.6506 71.3465 78.7206 70.7765 79.7706C69.9665 81.2906 68.8065 82.4006 67.0665 82.9106C65.5565 83.3506 64.1065 83.9906 62.6465 84.5706C49.3465 89.8506 36.8065 96.4406 26.2065 106.261C18.9165 113.011 13.2965 120.921 9.81645 130.271C6.30645 139.711 5.44646 149.461 6.44646 159.431C6.80646 163.041 7.30646 162.371 4.05646 163.951C1.65646 165.121 0.276453 167.051 0.0664531 169.651C-0.323547 174.451 0.986456 178.711 4.43646 182.201C6.11646 183.891 8.19645 184.961 10.2865 186.021C11.3765 186.571 11.7465 187.331 11.3065 188.461C10.9365 189.391 10.5265 190.301 10.1465 191.231C8.65645 194.851 10.7565 198.471 14.6065 198.931C20.4865 199.631 26.4065 199.771 32.3065 199.991C43.4165 200.411 54.5365 200.441 65.6465 200.271C71.0265 200.191 76.4265 200.121 81.7865 199.471C83.0965 199.311 83.8664 198.711 84.3064 197.511C84.9464 195.771 84.5264 194.331 83.2264 193.091C81.1464 191.121 78.5465 189.981 76.0465 188.701C74.2665 187.791 74.2265 187.761 75.1265 185.911C76.3765 183.331 77.8764 180.891 79.4464 178.491C81.1764 175.841 81.3864 175.811 83.7264 178.071C86.7264 180.971 88.7964 184.501 90.6164 188.201C92.2964 191.601 94.7765 194.241 98.0665 196.091C102.726 198.711 107.656 199.361 112.866 198.061C114.066 197.761 114.466 197.091 114.426 195.901C114.366 194.301 113.596 193.221 112.256 192.451C110.136 191.231 109.476 189.311 109.686 186.981C109.856 185.061 110.336 183.221 110.996 181.421C112.386 177.651 114.186 174.071 116.206 170.601C120.176 163.741 124.126 156.871 126.996 149.461C129.546 142.851 131.686 136.151 131.986 128.981C132.216 123.611 131.636 118.311 130.646 113.051C130.426 111.851 130.736 111.131 131.666 110.361C135.326 107.321 138.516 103.861 140.826 99.6606C144.506 92.9306 144.466 86.4006 139.886 80.0306L139.876 80.0506ZM111.146 87.8706C108.536 87.9006 106.386 85.7906 106.376 83.1706C106.366 80.5506 108.496 78.3906 111.076 78.4206C113.606 78.4406 115.786 80.5606 115.826 83.0306C115.866 85.5706 113.676 87.8406 111.146 87.8706Z"/>
</svg>
