<svg viewBox="0 0 206 73" fill="none" xmlns="http://www.w3.org/2000/svg">
<path d="M83.2899 27.58C81.2899 22.3 79.1999 16.84 77.7399 12.29C76.2799 17.02 74.4599 21.94 72.2799 27.58L58.5599 63.05C58.0999 64.14 57.0999 64.51 55.8299 64.05C54.7399 63.69 54.2799 62.78 54.7399 61.59L75.1999 9.29001C75.6599 8.20001 76.5599 7.65001 77.7499 7.65001C78.9399 7.65001 79.8399 8.20001 80.2999 9.29001L103.87 70.25C104.33 71.43 103.78 72.34 102.69 72.71C101.42 73.17 100.41 72.8 99.9599 71.71L83.3099 27.58H83.2899Z" fill="#2E1E57"/>
<path d="M152.81 38.91V67.89C152.81 71.44 151.44 72.71 149.26 72.71C147.8 72.71 146.99 72.16 145.8 70.25L114.41 17.75C113.59 16.38 112.59 14.38 111.86 12.56V38.75C111.86 39.93 110.86 40.39 109.77 40.39C108.77 40.39 107.77 39.93 107.77 38.75V12.65C107.77 9.1 109.13 7.83 111.32 7.83C112.78 7.83 113.6 8.38 114.78 10.29L146.17 62.79C146.99 64.15 147.99 66.16 148.72 67.98V38.9C148.72 37.72 149.72 37.26 150.72 37.26C151.81 37.26 152.81 37.71 152.81 38.9V38.91Z" fill="#2E1E57"/>
<path d="M190.62 27.58C188.62 22.3 186.53 16.84 185.07 12.29C183.61 17.02 181.79 21.94 179.61 27.58L162.5 71.71C162.04 72.8 161.04 73.17 159.77 72.71C158.68 72.35 158.22 71.44 158.68 70.25L182.52 9.29001C182.98 8.20001 183.88 7.65001 185.07 7.65001C186.26 7.65001 187.16 8.20001 187.62 9.29001L205.36 54.66C205.82 55.84 205.27 56.75 204.18 57.12C202.91 57.58 201.9 57.21 201.45 56.12L190.63 27.59L190.62 27.58Z" fill="#2E1E57"/>
<path d="M43.26 25.2C42.26 25.2 41.26 25.65 41.26 26.84V36.78H4.40998V24.84C4.52998 20.28 5.69998 5.53 15.66 5.03C16.82 4.97 17.71 3.99 17.65 2.83C17.59 1.67 16.59 0.770004 15.45 0.840004C1.28997 1.55 0.26998 20.63 0.22998 25.3V71.27C0.22998 72.45 1.22998 72.91 2.22998 72.91C3.40998 72.91 4.40998 72.45 4.40998 71.27V40.52H41.26V71.27C41.26 72.45 42.26 72.91 43.26 72.91C44.44 72.91 45.44 72.45 45.44 71.27V26.85C45.44 25.67 44.44 25.21 43.26 25.21V25.2Z" fill="#2E1E57"/>
<path d="M185.03 57.88C188.25 57.88 190.86 55.2698 190.86 52.05C190.86 48.8302 188.25 46.22 185.03 46.22C181.81 46.22 179.2 48.8302 179.2 52.05C179.2 55.2698 181.81 57.88 185.03 57.88Z" fill="#5C3CAB"/>
</svg>
