<?xml version="1.0" encoding="UTF-8"?><svg id="_레이어_2" xmlns="http://www.w3.org/2000/svg" xmlns:xlink="http://www.w3.org/1999/xlink" viewBox="0 0 290.65 417.6"><defs><style>.cls-1{fill:#664599;}.cls-2,.cls-3{fill:#fff;}.cls-4{fill:url(#_무제_그라디언트_36);opacity:.3;}.cls-5{fill:url(#_무제_그라디언트_144);}.cls-6{fill:#5c3cab;}.cls-7{fill:url(#l_linearGradient997);}.cls-3{opacity:.8;}.cls-8{fill:url(#_무제_그라디언트_27);opacity:.32;}.cls-9{fill:#2e1e57;}.cls-10{fill:url(#_무제_그라디언트_106);}</style><linearGradient id="_무제_그라디언트_106" x1="221.64" y1="12.05" x2="109.7" y2="207.55" gradientUnits="userSpaceOnUse"><stop offset="0" stop-color="#49a8df"/><stop offset=".49" stop-color="#6e63aa"/><stop offset="1" stop-color="#170b28"/></linearGradient><linearGradient id="l_linearGradient997" x1="176.05" y1="110.85" x2="129.37" y2="184.92" gradientUnits="userSpaceOnUse"><stop offset="0" stop-color="#6530b0"/><stop offset=".42" stop-color="#4e268a"/><stop offset=".7" stop-color="#33195b"/><stop offset="1" stop-color="#0f071a"/></linearGradient><linearGradient id="_무제_그라디언트_144" x1="146.11" y1="143.88" x2="49.45" y2="318.27" gradientUnits="userSpaceOnUse"><stop offset="0" stop-color="#664599"/><stop offset=".42" stop-color="#4e268a"/><stop offset=".7" stop-color="#33195b"/><stop offset="1" stop-color="#170b28"/></linearGradient><linearGradient id="_무제_그라디언트_36" x1="246.91" y1="282.16" x2="171.32" y2="182.01" gradientUnits="userSpaceOnUse"><stop offset="0" stop-color="#000"/><stop offset="1" stop-color="#000" stop-opacity="0"/></linearGradient><linearGradient id="_무제_그라디언트_27" x1="58.74" y1="4.12" x2="122.05" y2="109" gradientUnits="userSpaceOnUse"><stop offset="0" stop-color="#fff"/><stop offset="1" stop-color="#fff" stop-opacity="0"/></linearGradient></defs><g id="_레이어_1-2"><g><g><path class="cls-10" d="m285.67,182.9c-20.77,77.51-100.44,123.5-177.94,102.74C30.22,264.86-15.78,185.19,4.99,107.69,14.96,70.47,39.31,38.73,72.68,19.47,106.05.2,145.71-5.02,182.93,4.95c77.51,20.77,123.5,100.44,102.74,177.94Z"/><path class="cls-7" d="m290.62,145.29c0,38.53-15.31,75.49-42.55,102.74-27.25,27.25-64.2,42.55-102.74,42.55s-75.49-15.31-102.74-42.55C15.34,220.78.04,183.82.04,145.29s26.94-28.34,62.67-42.76c30.6-12.35,63.46,31.21,101.99,31.21s53.56-13.49,77.03-23.01c32.54-13.2,48.89-3.97,48.89,34.56Z"/><path id="_토끼" class="cls-2" d="m213.3,119.77c-3.65-5.06-7.79-9.65-12.71-13.5-3.75-2.93-7.71-5.49-12.5-6.35-.98-.18-.94-.76-.76-1.47,1.43-5.75,1.27-11.53.29-17.33-1.44-8.46-4.43-16.38-8.32-23.98-2.83-5.53-5.98-10.86-10.21-15.49-1.98-2.16-3.54-3-6.57.11-.94.96-1.66,2.09-2.35,3.23-1.55,2.59-2.72,5.36-3.83,8.15q-1.27,3.21,1.25,5.41c.11.09.21.19.32.29,11.07,10.07,17.8,22.6,21.05,37.11.17.76.42,1.54.26,2.44-.46-.39-.46-.84-.56-1.25-1.27-5.31-2.98-10.46-5.34-15.39-4.87-10.18-11.7-18.55-22.14-23.44-5.67-2.65-11.62-4.03-17.93-3.09-3.91.58-5.17,2.12-5.02,6.06,0,.14.03.29.03.43.15,4.14,1.17,8.11,2.38,12.04,2.91,9.44,7.52,17.81,15.08,24.38,2.81,2.44,5.63,4.87,8.67,7.03.86.61,1.13.95-.05,1.63-3.84,2.24-6.83,5.32-8.59,9.48-.46,1.1-.98,2.17-1.55,3.22-.81,1.52-1.97,2.63-3.71,3.14-1.51.44-2.96,1.08-4.42,1.66-13.3,5.28-25.84,11.87-36.44,21.69-7.29,6.75-12.91,14.66-16.39,24.01-3.51,9.44-4.37,19.19-3.37,29.16.36,3.61.86,2.94-2.39,4.52-2.4,1.17-3.78,3.1-3.99,5.7-.39,4.8.92,9.06,4.37,12.55,1.68,1.69,3.76,2.76,5.85,3.82,1.09.55,1.46,1.31,1.02,2.44-.37.93-.78,1.84-1.16,2.77-1.49,3.62.61,7.24,4.46,7.7,5.88.7,11.8.84,17.7,1.06,11.11.42,22.23.45,33.34.28,5.38-.08,10.78-.15,16.14-.8,1.31-.16,2.08-.76,2.52-1.96.64-1.74.22-3.18-1.08-4.42-2.08-1.97-4.68-3.11-7.18-4.39-1.78-.91-1.82-.94-.92-2.79,1.25-2.58,2.75-5.02,4.32-7.42,1.73-2.65,1.94-2.68,4.28-.42,3,2.9,5.07,6.43,6.89,10.13,1.68,3.4,4.16,6.04,7.45,7.89,4.66,2.62,9.59,3.27,14.8,1.97,1.2-.3,1.6-.97,1.56-2.16-.06-1.6-.83-2.68-2.17-3.45-2.12-1.22-2.78-3.14-2.57-5.47.17-1.92.65-3.76,1.31-5.56,1.39-3.77,3.19-7.35,5.21-10.82,3.97-6.86,7.92-13.73,10.79-21.14,2.55-6.61,4.69-13.31,4.99-20.48.23-5.37-.35-10.67-1.34-15.93-.22-1.2.09-1.92,1.02-2.69,3.66-3.04,6.85-6.5,9.16-10.7,3.68-6.73,3.64-13.26-.94-19.63Zm-28.73,7.82c-2.61.03-4.76-2.08-4.77-4.7-.01-2.62,2.12-4.78,4.7-4.75,2.53.02,4.71,2.14,4.75,4.61.04,2.54-2.15,4.81-4.68,4.84Z"/><path class="cls-5" d="m290.62,145.29c0,38.53-15.31,75.49-42.55,102.74-27.25,27.25-64.2,42.55-102.74,42.55s-75.49-15.31-102.74-42.55C15.34,220.78.04,183.82.04,145.29S15.34,69.8,42.59,42.56c27.25-27.25-11.35,100.05,62.17,96.01,65.24-3.58,45.46,27.95,72.71,55.2s113.15-87,113.15-48.47Z"/><circle class="cls-3" cx="89.86" cy="82.37" r="8.87"/><circle class="cls-3" cx="247.08" cy="70.5" r="4.43"/><path class="cls-3" d="m102.92,22.96l-.86.15-.15-.86c-.08-.47-.53-.78-1-.7h-.04c-.47.09-.78.54-.7,1.01l.15.86-.86.15c-.47.08-.78.53-.7,1v.04c.09.47.54.78,1.01.7l.86-.15.15.86c.08.47.53.78,1,.7h.04c.47-.09.78-.54.7-1.01l-.15-.86.86-.15c.47-.08.78-.53.7-1v-.04c-.09-.47-.54-.78-1.01-.7Z"/><circle class="cls-3" cx="273.13" cy="160.22" r="2.22"/><circle class="cls-4" cx="145.33" cy="147.56" r="122"/><circle class="cls-8" cx="145.33" cy="147.56" r="122"/><circle class="cls-3" cx="245.08" cy="205.65" r="4.43"/><circle class="cls-2" cx="69.59" cy="153.21" r="1.59"/><circle class="cls-2" cx="136.4" cy="189.6" r="1.59"/><circle class="cls-2" cx="119.2" cy="219.83" r="1.59"/><circle class="cls-2" cx="85.76" cy="195.09" r="1.59"/><circle class="cls-2" cx="40.83" cy="222.03" r="1.59"/><circle class="cls-2" cx="68.96" cy="242.3" r="3.01"/><circle class="cls-2" cx="55.43" cy="182.74" r="3.01"/><circle class="cls-2" cx="166.15" cy="262.79" r="3.01"/><circle class="cls-2" cx="91.53" cy="235.43" r="1.86"/><circle class="cls-2" cx="66.98" cy="226.06" r=".8"/><circle class="cls-2" cx="38.96" cy="77.31" r=".8"/><circle class="cls-2" cx="38.56" cy="155.06" r=".8"/><circle class="cls-2" cx="38.88" cy="189.11" r=".8"/><circle class="cls-2" cx="107.45" cy="260.43" r=".8"/><circle class="cls-2" cx="92.56" cy="190.31" r=".8"/><circle class="cls-2" cx="86.44" cy="155.19" r=".8"/><circle class="cls-2" cx="67.75" cy="193.72" r=".8"/><circle class="cls-2" cx="120.69" cy="206.51" r=".8"/><circle class="cls-2" cx="88.59" cy="169.61" r=".8"/><circle class="cls-2" cx="115.75" cy="187.07" r=".8"/><circle class="cls-2" cx="99.85" cy="172.26" r=".8"/><circle class="cls-2" cx="132.66" cy="204.5" r=".8"/><circle class="cls-2" cx="142.35" cy="225.14" r="1.59"/><circle class="cls-2" cx="96.8" cy="213.75" r="1.59"/><circle class="cls-2" cx="112.98" cy="236.79" r="1.59"/><circle class="cls-2" cx="53.13" cy="207.67" r="3.1"/><circle class="cls-2" cx="182.68" cy="222.72" r="3.1"/><circle class="cls-2" cx="119.01" cy="176.34" r="3.1"/><polygon class="cls-2" points="188.92 266.26 192.11 271.83 193.34 265.54 198.9 262.35 193.35 261.27 236.47 199.19 191.77 259.66 189.42 255.56 188.2 261.85 182.63 265.04 188.92 266.26"/><polygon class="cls-2" points="213.49 249.81 212.33 255.21 207.48 257.87 212.89 259.03 215.54 263.88 216.7 258.47 221.56 255.82 216.86 254.81 235.88 227.47 215.35 253.21 213.49 249.81"/><polygon class="cls-2" points="245.45 134.64 246.42 132.05 249.01 131.08 246.42 130.12 245.45 127.53 244.49 130.12 241.9 131.08 244.49 132.05 245.45 134.64"/><polygon class="cls-2" points="46.58 126.53 49.62 118.38 57.77 115.35 49.62 112.32 46.58 104.17 43.55 112.32 35.4 115.35 43.55 118.38 46.58 126.53"/><polygon class="cls-2" points="18.03 110.66 17.28 112.68 15.26 113.43 17.28 114.18 18.03 116.19 18.78 114.18 20.79 113.43 18.78 112.68 18.03 110.66"/><polygon class="cls-2" points="232.52 45.74 209.95 70.52 208.84 68.14 207.7 72.15 203.93 73.91 207.93 75.04 209.69 78.82 210.83 74.81 214.61 73.06 211.44 72.16 232.52 45.74"/></g><g><g><path class="cls-9" d="m125.75,346.16c-2-5.28-4.09-10.74-5.55-15.29-1.46,4.73-3.28,9.65-5.46,15.29l-13.72,35.47c-.46,1.09-1.46,1.46-2.73,1-1.09-.36-1.55-1.27-1.09-2.46l20.46-52.3c.46-1.09,1.36-1.64,2.55-1.64s2.09.55,2.55,1.64l23.57,60.96c.46,1.18-.09,2.09-1.18,2.46-1.27.46-2.28.09-2.73-1l-16.65-44.13Z"/><path class="cls-9" d="m195.27,357.48v28.98c0,3.55-1.37,4.82-3.55,4.82-1.46,0-2.27-.55-3.46-2.46l-31.39-52.5c-.82-1.37-1.82-3.37-2.55-5.19v26.19c0,1.18-1,1.64-2.09,1.64-1,0-2-.46-2-1.64v-26.1c0-3.55,1.36-4.82,3.55-4.82,1.46,0,2.28.55,3.46,2.46l31.39,52.5c.82,1.36,1.82,3.37,2.55,5.19v-29.08c0-1.18,1-1.64,2-1.64,1.09,0,2.09.45,2.09,1.64Z"/><path class="cls-9" d="m233.08,346.16c-2-5.28-4.09-10.74-5.55-15.29-1.46,4.73-3.28,9.65-5.46,15.29l-17.11,44.13c-.46,1.09-1.46,1.46-2.73,1-1.09-.36-1.55-1.27-1.09-2.46l23.84-60.96c.46-1.09,1.36-1.64,2.55-1.64s2.09.55,2.55,1.64l17.74,45.37c.46,1.18-.09,2.09-1.18,2.46-1.27.46-2.28.09-2.73-1l-10.82-28.53Z"/><path class="cls-9" d="m85.72,343.77c-1,0-2,.45-2,1.64v9.94h-36.85v-11.94c.12-4.56,1.29-19.31,11.25-19.81,1.16-.06,2.05-1.04,1.99-2.2-.06-1.16-1.06-2.06-2.2-1.99-14.16.71-15.18,19.79-15.22,24.46h0v45.97c0,1.18,1,1.64,2,1.64,1.18,0,2.18-.46,2.18-1.64v-30.75h36.85v30.75c0,1.18,1,1.64,2,1.64,1.18,0,2.18-.46,2.18-1.64v-44.42c0-1.18-1-1.64-2.18-1.64Z"/><circle class="cls-6" cx="227.49" cy="370.63" r="5.83"/></g><g><path class="cls-1" d="m87.55,408.96v.29c0,1.56-.8,2.57-2.2,3l2.28,4.46c.16.33.05.59-.26.74-.31.16-.62.1-.79-.21l-2.39-4.79c-.23.03-.46.05-.7.05h-2.49v4.54c0,.34-.28.49-.61.49s-.59-.15-.59-.49v-10.14c0-.82.28-1.08,1.1-1.08h2.79c2.39,0,3.87,1.02,3.87,3.15Zm-4.1,2.49c2.02,0,2.9-.77,2.9-2.23v-.21c0-1.44-.89-2.15-2.75-2.15h-2.61v4.59h2.46Z"/><path class="cls-1" d="m99.77,411.6v5.47c0,.33-.28.46-.56.46s-.56-.13-.56-.46v-.8h-.02c-.16.34-.51.69-.93.92-.46.25-1.05.41-1.79.41-1.8,0-2.93-.93-2.93-2.52v-.16c0-1.39.9-2.46,3.13-2.46h2.47v-.61c0-1.38-.64-2.03-2.08-2.03-.84,0-1.61.26-2.29.71-.26.16-.54.07-.69-.18-.15-.23-.13-.52.13-.71.69-.47,1.75-.85,2.88-.85,2,0,3.23,1.08,3.23,2.82Zm-5.62,3.34v.1c0,.95.66,1.54,1.85,1.54.64,0,1.15-.1,1.59-.33.61-.33,1.02-.87,1.02-1.62v-1.23h-2.46c-1.46,0-2,.66-2,1.54Z"/><path class="cls-1" d="m106.97,405.83v4.36c.48-.87,1.56-1.41,2.69-1.41,2.26,0,3.42,1.39,3.42,4.06v.69c0,2.72-1.38,4.06-3.52,4.06-1.13,0-2.15-.48-2.61-1.25h-.03v.7c0,.33-.28.48-.56.48-.3,0-.57-.15-.57-.48v-11.23c0-.34.29-.49.59-.49.31,0,.59.15.59.49Zm-.02,6.46v2.26c0,1.05,1.03,2.02,2.54,2.02s2.43-.95,2.43-3.11v-.54c0-2.1-.77-3.1-2.44-3.1-1.29,0-2.52.95-2.52,2.47Z"/><path class="cls-1" d="m119.95,405.83v4.36c.48-.87,1.56-1.41,2.69-1.41,2.26,0,3.42,1.39,3.42,4.06v.69c0,2.72-1.38,4.06-3.52,4.06-1.13,0-2.15-.48-2.61-1.25h-.03v.7c0,.33-.28.48-.56.48-.3,0-.57-.15-.57-.48v-11.23c0-.34.29-.49.59-.49.31,0,.59.15.59.49Zm-.02,6.46v2.26c0,1.05,1.03,2.02,2.54,2.02s2.43-.95,2.43-3.11v-.54c0-2.1-.77-3.1-2.44-3.1-1.29,0-2.52.95-2.52,2.47Z"/><path class="cls-1" d="m133.24,406.63c0,.46-.38.84-.87.84s-.87-.38-.87-.84.38-.85.87-.85.87.38.87.85Zm-.28,2.75v7.65c0,.34-.28.49-.59.49-.29,0-.59-.15-.59-.49v-7.65c0-.34.29-.49.59-.49.31,0,.59.15.59.49Z"/><path class="cls-1" d="m140.85,407.11v1.85h2.08c.26,0,.39.21.39.48,0,.28-.13.49-.39.49h-2.08v5.02c0,1.26.3,1.64,1.2,1.64.31,0,.59-.05.85-.16.25-.08.48,0,.59.29.1.28,0,.52-.26.66-.31.15-.77.23-1.25.23-1.57,0-2.31-.67-2.31-2.56v-5.11h-1.15c-.28,0-.41-.21-.41-.49,0-.26.13-.48.41-.48h1.15v-1.85c0-.34.28-.49.57-.49.31,0,.61.15.61.49Z"/><path class="cls-9" d="m161.68,409.57c.16.1.2.29.1.46-.1.16-.26.23-.44.13-.62-.38-1.38-.62-2.39-.62-1.54,0-2.28.66-2.28,1.52v.05c0,.88.59,1.31,2.44,1.66,2.33.43,3.05.97,3.05,2.42v.13c0,1.29-1.2,2.28-3.18,2.28-1.25,0-2.39-.43-3.02-.87-.18-.13-.2-.31-.1-.48.11-.18.29-.23.49-.1.61.41,1.57.79,2.64.79,1.56,0,2.46-.71,2.46-1.66v-.05c0-1.07-.38-1.41-2.67-1.84-1.85-.34-2.82-.97-2.82-2.23v-.13c0-1.18.97-2.16,3.05-2.16,1.11,0,2.03.3,2.67.69Z"/><path class="cls-9" d="m168.92,406.68c0,.36-.28.64-.66.64s-.66-.28-.66-.64.28-.64.66-.64.66.28.66.64Zm-.28,2.62v7.92c0,.21-.18.29-.38.29-.18,0-.36-.08-.36-.29v-7.92c0-.21.18-.29.36-.29.2,0,.38.08.38.29Z"/><path class="cls-9" d="m176.24,407.04v2.02h2.26c.16,0,.25.13.25.29,0,.18-.08.31-.25.31h-2.26v5.36c0,1.52.33,1.93,1.41,1.93.33,0,.64-.07.88-.18.2-.08.34-.02.43.16.08.2.02.34-.18.44-.28.13-.69.21-1.15.21-1.39,0-2.13-.51-2.13-2.39v-5.54h-1.31c-.16,0-.25-.13-.25-.31,0-.16.08-.29.25-.29h1.31v-2.02c0-.21.18-.29.36-.29.2,0,.38.08.38.29Z"/><path class="cls-9" d="m185.71,407.04v2.02h2.26c.16,0,.25.13.25.29,0,.18-.08.31-.25.31h-2.26v5.36c0,1.52.33,1.93,1.41,1.93.33,0,.64-.07.88-.18.2-.08.34-.02.43.16.08.2.02.34-.18.44-.28.13-.69.21-1.15.21-1.39,0-2.13-.51-2.13-2.39v-5.54h-1.31c-.16,0-.25-.13-.25-.31,0-.16.08-.29.25-.29h1.31v-2.02c0-.21.18-.29.36-.29.2,0,.38.08.38.29Z"/><path class="cls-9" d="m200.51,412.75v.03c0,.44-.21.67-.72.67h-5.52v.12c0,2.33,1.11,3.38,2.9,3.38,1.06,0,1.9-.26,2.56-.71.2-.13.38-.08.48.08.1.16.08.34-.1.48-.7.47-1.72.8-2.98.8-2.18,0-3.59-1.33-3.59-3.95v-.82c0-2.62,1.41-3.95,3.51-3.95s3.47,1.43,3.47,3.87Zm-6.24,0v.08h5.51v-.12c0-2.08-1.07-3.18-2.74-3.18s-2.77,1.13-2.77,3.21Z"/><path class="cls-9" d="m210.65,409.03c.18.07.25.23.18.44-.07.2-.21.29-.41.25-.23-.07-.52-.11-.84-.11-1.62,0-2.46,1.39-2.46,3.26v4.36c0,.21-.18.29-.38.29-.18,0-.36-.08-.36-.29v-7.92c0-.21.18-.29.36-.29s.36.08.36.29v1.44h.02c.23-.82,1.08-1.87,2.52-1.87.38,0,.7.05,1,.15Z"/></g></g></g></g></svg>